<svg width="186" height="32" viewBox="0 0 186 32" fill="none" xmlns="http://www.w3.org/2000/svg">
<g clip-path="url(#clip0_0_3)">
<path d="M50.396 12.8625V4.74904H54.0198V25.6398H50.6416L50.3956 23.6319L50.379 23.4962L50.3042 23.6106C49.1514 25.3729 47.3201 25.9558 45.5029 25.9558C43.3093 25.9558 41.392 25.238 40.0233 23.9181C38.655 22.5985 37.8312 20.6732 37.8312 18.2503C37.8312 15.7137 38.6441 13.7888 39.9946 12.4979C41.3456 11.2066 43.2398 10.5447 45.4115 10.5447C46.192 10.5447 47.1962 10.7516 48.1159 11.1494C49.0363 11.5476 49.8649 12.1339 50.3028 12.8876L50.396 13.0481V12.8625ZM41.4322 18.2722C41.4322 20.8931 43.3514 22.6737 45.7541 22.6737C48.1323 22.6737 50.1675 20.9629 50.1675 18.2722C50.1675 15.6496 48.1324 13.8933 45.7541 13.8933C44.5546 13.8931 43.4737 14.3087 42.6924 15.0655C41.9109 15.8226 41.4322 16.9183 41.4322 18.2722Z" fill="black" stroke="white" stroke-width="0.1"/>
<path d="M64.6296 13.7583C63.3847 13.7471 62.2581 14.1625 61.4424 14.9391C60.6262 15.7162 60.1247 16.8515 60.1247 18.2731C60.1247 19.6946 60.6262 20.8352 61.4422 21.6203C62.2578 22.4052 63.3844 22.8318 64.6294 22.8318C66.1054 22.8318 67.2159 22.2651 67.9568 21.4125C68.6968 20.5609 69.0656 19.4271 69.0656 18.295C69.0656 17.163 68.6968 16.0292 67.9568 15.1776C67.216 14.3251 66.1056 13.7584 64.6296 13.7583ZM64.6296 13.7583C64.6297 13.7583 64.6298 13.7583 64.6299 13.7583L64.6294 13.8083V13.7583C64.6295 13.7583 64.6296 13.7583 64.6296 13.7583ZM66.9373 25.4313C66.0415 25.8621 65.0436 26.0803 64.2171 26.0915C61.9999 26.1027 60.0831 25.435 58.721 24.1242C57.3591 22.8135 56.5461 20.8547 56.5461 18.2725C56.5461 15.7367 57.4041 13.8061 58.8003 12.512C60.197 11.2174 62.1372 10.5555 64.3086 10.5669H64.3089C66.3066 10.5669 68.206 11.4858 69.0401 12.9542L69.124 13.1019L69.1335 12.9323L69.2457 10.9276H72.7122V25.6406H69.3129L69.1333 23.5219L69.118 23.341L69.0385 23.5042C68.6225 24.3588 67.8334 25.0003 66.9373 25.4313Z" fill="black" stroke="white" stroke-width="0.1"/>
<path d="M82.0662 23.0802C82.771 23.0916 83.4603 22.9151 83.975 22.5965C84.4897 22.278 84.8354 21.8131 84.8354 21.2491C84.8354 20.9883 84.781 20.7618 84.6624 20.5678C84.5439 20.3737 84.3634 20.2159 84.1173 20.0886C83.6274 19.8354 82.8701 19.6999 81.7958 19.6434C80.3829 19.5422 78.8385 19.233 77.6489 18.5342C76.4618 17.8369 75.6289 16.7527 75.6289 15.0939C75.6289 13.4016 76.5129 12.2609 77.7402 11.5408C78.9697 10.8194 80.5422 10.5217 81.9069 10.5217C84.2347 10.5217 85.9725 10.9642 87.6849 12.4385L85.695 14.7517C84.6192 13.7756 83.4071 13.4431 81.9756 13.4431C81.0921 13.4431 80.3973 13.5788 79.9214 13.8352C79.4431 14.093 79.1841 14.4746 79.1841 14.9586C79.1841 15.4627 79.4176 15.856 79.8941 16.1348C80.3669 16.4113 81.0788 16.5754 82.041 16.6319C83.4568 16.7221 85.0519 16.9247 86.2923 17.5927C86.9116 17.9262 87.4412 18.3751 87.8162 18.983C88.1911 19.5908 88.4134 20.3607 88.4134 21.3393C88.4134 22.6323 87.8773 23.8356 86.8124 24.7165C85.747 25.5979 84.1487 26.1593 82.0213 26.1593C79.6625 26.1593 77.3129 25.7813 75.1411 23.5661L76.9095 21.0354C77.4564 21.6104 78.3172 22.1099 79.2445 22.471C80.1967 22.8417 81.225 23.0688 82.0662 23.0802ZM82.0662 23.0802C82.0661 23.0802 82.0661 23.0802 82.0661 23.0802L82.0669 23.0302L82.0662 23.0802C82.0662 23.0802 82.0662 23.0802 82.0662 23.0802Z" fill="black" stroke="white" stroke-width="0.1"/>
<path d="M105.344 17.8667V25.6178H101.72V17.9122C101.72 16.5509 101.358 15.5729 100.741 14.9352C100.124 14.2974 99.2583 14.0069 98.2664 14.0069C96.0404 14.0069 94.4925 15.8609 94.4925 18.1151V25.6408H90.8688V4.70448H94.5154V12.8839V13.0283L94.6047 12.9148C95.9413 11.2157 97.5702 10.7019 99.2487 10.7019C101.373 10.7019 102.893 11.4132 103.884 12.6589C104.877 13.9065 105.344 15.6974 105.344 17.8667Z" fill="black" stroke="white" stroke-width="0.1"/>
<path d="M108.242 15.3406L108.242 15.3404C108.22 12.6005 109.113 9.83979 110.968 7.76473C112.823 5.6906 115.642 4.29792 119.478 4.29792C122.349 4.29792 125.042 5.36282 127.219 7.47172L124.617 9.95154C123.217 8.61129 121.323 7.98666 119.477 7.98666C116.894 7.98666 115.04 8.93918 113.836 10.3377C112.634 11.7349 112.082 13.5736 112.094 15.3421C112.106 17.0985 112.628 18.8922 113.811 20.2475C114.996 21.6041 116.837 22.5164 119.477 22.5164C121.323 22.5164 123.418 21.7807 124.823 20.395L127.494 23.0517C125.316 25.1588 122.511 26.1355 119.478 26.1355C115.538 26.1355 112.736 24.7986 110.916 22.7841C109.096 20.7687 108.253 18.0702 108.242 15.3406Z" fill="black" stroke="white" stroke-width="0.1"/>
<path d="M132.869 4.74904V25.6398H129.291V4.74904H132.869Z" fill="black" stroke="white" stroke-width="0.1"/>
<path d="M140.175 6.70592C140.175 7.40799 139.907 7.93106 139.507 8.27923C139.106 8.62826 138.57 8.80394 138.032 8.80394C137.494 8.80394 136.958 8.62826 136.557 8.27923C136.157 7.93106 135.889 7.40799 135.889 6.70592C135.889 6.00385 136.157 5.48083 136.557 5.13272C136.958 4.78374 137.494 4.60812 138.032 4.60816C138.57 4.60821 139.106 4.78391 139.507 5.13291C139.907 5.48105 140.175 6.00403 140.175 6.70592ZM139.855 25.64H136.232V10.8818L139.855 10.882V25.64Z" fill="black" stroke="white" stroke-width="0.1"/>
<path d="M153.635 21.4537L156.053 23.7965C154.338 25.4512 152.533 26.0913 150.345 26.0913C148.173 26.0913 146.193 25.446 144.756 24.1511C143.32 22.8569 142.422 20.9096 142.422 18.2951C142.422 15.6808 143.326 13.7334 144.764 12.4392C146.204 11.1443 148.185 10.499 150.345 10.499C152.442 10.499 154.066 11.0942 155.689 12.6374L153.404 15.002C152.51 14.2261 151.417 13.8486 150.391 13.8486C147.873 13.8486 146.024 15.6751 146.024 18.2951C146.024 19.7164 146.514 20.8124 147.302 21.5529C148.089 22.2929 149.169 22.6741 150.345 22.6741C151.527 22.6741 152.714 22.3416 153.635 21.4537Z" fill="black" stroke="white" stroke-width="0.1"/>
<path d="M161.415 16.8613L166.448 10.9268H170.831V11.0604L164.721 17.81L164.69 17.8439L164.721 17.8774L171.676 25.4386V25.6398H167.271L161.415 18.9605L161.327 18.8606V18.9935V25.6398H157.703V4.74904H161.327V16.829V16.9653L161.415 16.8613Z" fill="black" stroke="white" stroke-width="0.1"/>
<path d="M183.234 14.7517L185.224 12.4385C183.511 10.9642 181.773 10.5217 179.445 10.5217C178.08 10.5217 176.508 10.8194 175.278 11.5408C174.051 12.2609 173.167 13.4016 173.167 15.0939C173.167 16.7527 174 17.8369 175.187 18.5342C176.377 19.233 177.922 19.5421 179.334 19.6434C179.334 19.6434 179.334 19.6434 179.335 19.6434L179.331 19.6933C181.479 19.8062 182.324 20.2345 182.324 21.2491C182.324 22.3314 180.999 23.0528 179.605 23.0302L183.234 14.7517ZM183.234 14.7517C182.159 13.7756 180.946 13.4431 179.514 13.4431C178.631 13.4431 177.936 13.5788 177.46 13.8352C176.982 14.093 176.723 14.4746 176.723 14.9586C176.723 15.4627 176.957 15.856 177.433 16.1348C177.906 16.4113 178.618 16.5754 179.58 16.6319L183.234 14.7517Z" fill="black" stroke="white" stroke-width="0.1"/>
<path d="M26.7722 0H5.22939C2.34155 0 0.000488281 2.31047 0.000488281 5.16058V26.4219C0.000488281 29.272 2.34155 31.5825 5.22939 31.5825H26.7722C29.6601 31.5825 32.0011 29.272 32.0011 26.4219V5.16058C32.0011 2.31047 29.6601 0 26.7722 0Z" fill="url(#paint0_linear_0_3)"/>
<path d="M15.9603 4.15918C12.6148 4.15918 9.59568 5.53507 7.4502 7.74442C7.18988 8.01224 6.84267 8.43782 6.76203 8.75538C6.54922 9.58489 7.63436 10.073 8.24382 9.35008C8.24766 9.34534 8.31214 9.26449 8.31534 9.26149C10.1691 7.14862 12.9066 5.81284 15.9603 5.81284C21.539 5.81284 26.1344 10.403 26.0704 15.9085C26.0067 21.3655 21.5049 25.7698 15.9605 25.7698C13.0385 25.7698 10.4069 24.5468 8.5611 22.5913C8.50062 22.5274 8.24638 22.2564 8.06669 22.1238C7.19948 21.4842 6.17178 22.4958 7.09419 23.4515C7.10971 23.4676 7.12235 23.4864 7.13756 23.5033C9.35072 25.9677 12.6068 27.4985 16.2237 27.4206C22.7228 27.2807 27.8498 22.0148 27.745 15.6001C27.6415 9.26401 22.4047 4.15918 15.9603 4.15918Z" fill="white"/>
<path d="M14.3499 9.82007C13.6005 9.82007 13.0494 10.3006 12.6259 10.8519C12.4359 11.0992 12.1518 11.0549 12.1518 11.0549H5.28989L4.74731 12.4738C4.74731 12.4738 11.6345 12.4817 12.0732 12.4738C12.3551 12.4687 12.5921 12.6224 12.7004 12.7558C13.1054 13.2555 13.6541 13.6589 14.3494 13.6589C15.4235 13.6589 16.2943 12.7996 16.2943 11.7395C16.2943 10.6794 15.424 9.82007 14.3499 9.82007Z" fill="white"/>
<path d="M14.3499 17.9247C13.6005 17.9247 13.0494 18.4052 12.6259 18.9563C12.4359 19.2036 12.1518 19.1596 12.1518 19.1596H4.74731L5.28989 20.5782C5.28989 20.5782 11.6343 20.5863 12.074 20.5782C12.3559 20.5732 12.5929 20.7268 12.7012 20.8603C13.1062 21.3599 13.6549 21.7634 14.3502 21.7634C15.4243 21.7725 16.3024 20.9206 16.3117 19.8605C16.321 18.8005 15.4578 17.9338 14.3837 17.9247C14.3725 17.9247 14.361 17.9247 14.3499 17.9247Z" fill="white"/>
<path d="M20.3793 13.8725C19.6298 13.8725 19.0788 14.3531 18.6553 14.9043C18.4652 15.1515 18.1812 15.1074 18.1812 15.1074H4.25513V16.5278H12.6015C14.675 16.5296 17.8114 16.5313 18.1029 16.5261C18.3849 16.5209 18.622 16.6747 18.7301 16.8081C19.1351 17.3078 19.6839 17.7111 20.3791 17.7111C21.4532 17.7202 22.3313 16.8683 22.3406 15.8082C22.3499 14.7482 21.4867 13.8815 20.4126 13.8724C20.4014 13.8724 20.3904 13.8725 20.3793 13.8725Z" fill="white"/>
</g>
<defs>
<linearGradient id="paint0_linear_0_3" x1="0.000488281" y1="15.7912" x2="32.0011" y2="15.7912" gradientUnits="userSpaceOnUse">
<stop stop-color="#E064D7"/>
<stop offset="1" stop-color="#911AFF"/>
</linearGradient>
<clipPath id="clip0_0_3">
<rect width="186" height="32" fill="white"/>
</clipPath>
</defs>
</svg>
