<svg width="186" height="32" viewBox="0 0 186 32" fill="none" xmlns="http://www.w3.org/2000/svg">
<g clip-path="url(#clip0_2_2)">
<mask id="mask0_2_2" style="mask-type:luminance" maskUnits="userSpaceOnUse" x="0" y="0" width="186" height="32">
<path d="M186 0H0V32H186V0Z" fill="white"/>
</mask>
<g mask="url(#mask0_2_2)">
<path d="M26.7722 0H5.22939C2.34155 0 0.000488281 2.31047 0.000488281 5.16058V26.4219C0.000488281 29.272 2.34155 31.5825 5.22939 31.5825H26.7722C29.6601 31.5825 32.0011 29.272 32.0011 26.4219V5.16058C32.0011 2.31047 29.6601 0 26.7722 0Z" fill="url(#paint0_linear_2_2)"/>
<path d="M15.9603 4.15918C12.6148 4.15918 9.59568 5.53507 7.4502 7.74442C7.18988 8.01224 6.84267 8.43782 6.76203 8.75538C6.54922 9.58489 7.63436 10.073 8.24382 9.35008C8.24766 9.34534 8.31214 9.26449 8.31534 9.26149C10.1691 7.14862 12.9066 5.81284 15.9603 5.81284C21.539 5.81284 26.1344 10.403 26.0704 15.9085C26.0067 21.3655 21.5049 25.7698 15.9605 25.7698C13.0385 25.7698 10.4069 24.5468 8.5611 22.5913C8.50062 22.5274 8.24638 22.2564 8.06669 22.1238C7.19948 21.4842 6.17178 22.4958 7.09419 23.4515C7.10971 23.4676 7.12235 23.4864 7.13756 23.5033C9.35072 25.9677 12.6068 27.4985 16.2237 27.4206C22.7228 27.2807 27.8498 22.0148 27.745 15.6001C27.6415 9.26401 22.4047 4.15918 15.9603 4.15918Z" fill="white"/>
<path d="M14.3499 9.82007C13.6005 9.82007 13.0494 10.3006 12.6259 10.8519C12.4359 11.0992 12.1518 11.0549 12.1518 11.0549H5.28989L4.74731 12.4738C4.74731 12.4738 11.6345 12.4817 12.0732 12.4738C12.3551 12.4687 12.5921 12.6224 12.7004 12.7558C13.1054 13.2555 13.6541 13.6589 14.3494 13.6589C15.4235 13.6589 16.2943 12.7996 16.2943 11.7395C16.2943 10.6794 15.424 9.82007 14.3499 9.82007Z" fill="white"/>
<path d="M14.3499 17.9247C13.6005 17.9247 13.0494 18.4052 12.6259 18.9563C12.4359 19.2036 12.1518 19.1596 12.1518 19.1596H4.74731L5.28989 20.5782C5.28989 20.5782 11.6343 20.5863 12.074 20.5782C12.3559 20.5732 12.5929 20.7268 12.7012 20.8603C13.1062 21.3599 13.6549 21.7634 14.3502 21.7634C15.4243 21.7725 16.3024 20.9206 16.3117 19.8605C16.321 18.8005 15.4578 17.9338 14.3837 17.9247C14.3725 17.9247 14.361 17.9247 14.3499 17.9247Z" fill="white"/>
<path d="M20.3793 13.8725C19.6298 13.8725 19.0788 14.3531 18.6553 14.9043C18.4652 15.1515 18.1812 15.1074 18.1812 15.1074H4.25513V16.5278H12.6015C14.675 16.5296 17.8114 16.5313 18.1029 16.5261C18.3849 16.5209 18.622 16.6747 18.7301 16.8081C19.1351 17.3078 19.6839 17.7111 20.3791 17.7111C21.4532 17.7202 22.3313 16.8683 22.3406 15.8082C22.3499 14.7482 21.4867 13.8815 20.4126 13.8724C20.4014 13.8724 20.3904 13.8725 20.3793 13.8725Z" fill="white"/>
</g>
<mask id="path-7-inside-1_2_2" fill="white">
<path d="M37 26.6107V7.572H42.6165C45.826 7.572 48.3294 8.358 50.1266 9.93C51.9239 11.502 52.8226 13.86 52.8226 17.004C52.8226 20.1674 51.9346 22.5642 50.1587 24.1944C48.3828 25.8053 45.933 26.6107 42.8091 26.6107H37ZM40.723 23.8742H42.3598C44.478 23.8742 46.1148 23.3211 47.2702 22.2149C48.4256 21.0893 49.0033 19.3523 49.0033 17.004C49.0033 14.6751 48.4256 12.977 47.2702 11.9096C46.1148 10.8421 44.478 10.3084 42.3598 10.3084H40.723V23.8742ZM60.5574 26.96C59.188 26.96 58.0647 26.5719 57.1874 25.7956C56.3316 25.0193 55.9037 24.0101 55.9037 22.768C55.9037 21.2348 56.6418 20.051 58.1182 19.2164C59.5945 18.3625 61.9481 17.7803 65.179 17.4698C65.1576 16.7129 64.9329 16.0627 64.505 15.5193C64.0984 14.9565 63.3603 14.6751 62.2905 14.6751C61.5202 14.6751 60.7606 14.811 60.0117 15.0827C59.2843 15.3544 58.5675 15.6843 57.8614 16.0724L56.5134 13.8309C57.3907 13.3263 58.3749 12.8896 59.4661 12.5209C60.5787 12.1521 61.7555 11.9678 62.9965 11.9678C64.965 11.9678 66.4306 12.5015 67.3935 13.5689C68.3777 14.6169 68.8698 16.1404 68.8698 18.1393V26.6107H65.8208L65.5641 25.0387H65.4357C64.7296 25.5821 63.9701 26.0381 63.157 26.4069C62.3653 26.7756 61.4988 26.96 60.5574 26.96ZM61.7448 24.34C62.3867 24.34 62.9644 24.2041 63.478 23.9324C64.0129 23.6413 64.5799 23.2532 65.179 22.768V19.5658C63.0393 19.8181 61.5523 20.1965 60.7178 20.7011C59.8834 21.1863 59.4661 21.7879 59.4661 22.506C59.4661 23.1464 59.6801 23.6122 60.108 23.9033C60.536 24.1944 61.0816 24.34 61.7448 24.34ZM77.6839 26.96C76.614 26.96 75.5442 26.7756 74.4744 26.4069C73.4046 26.0187 72.4846 25.5433 71.7143 24.9804L73.4474 22.8262C74.1535 23.3114 74.8595 23.6996 75.5656 23.9907C76.2717 24.2818 77.0206 24.4273 77.8122 24.4273C78.6681 24.4273 79.2993 24.2624 79.7058 23.9324C80.1123 23.6025 80.3156 23.195 80.3156 22.7098C80.3156 22.3022 80.1444 21.9723 79.8021 21.72C79.4812 21.4483 79.0639 21.2154 78.5504 21.0213C78.0369 20.8079 77.502 20.6041 76.9457 20.41C76.261 20.1771 75.5763 19.8957 74.8916 19.5658C74.2284 19.2164 73.6827 18.7798 73.2548 18.2558C72.8269 17.7124 72.6129 17.0428 72.6129 16.2471C72.6129 14.9856 73.1264 13.957 74.1535 13.1613C75.1805 12.3656 76.5713 11.9678 78.3258 11.9678C79.4384 11.9678 80.4333 12.1424 81.3105 12.4918C82.1878 12.8411 82.9474 13.239 83.5892 13.6853L81.8882 15.7231C81.3319 15.3544 80.7649 15.0633 80.1872 14.8498C79.6309 14.6169 79.0425 14.5004 78.422 14.5004C77.6304 14.5004 77.042 14.6557 76.6568 14.9662C76.2717 15.2573 76.0791 15.6261 76.0791 16.0724C76.0791 16.6353 76.4001 17.0622 77.042 17.3533C77.6839 17.6444 78.4327 17.9259 79.2886 18.1976C80.0161 18.4304 80.7221 18.7216 81.4068 19.0709C82.0915 19.4008 82.6585 19.8375 83.1078 20.3809C83.5785 20.9243 83.8139 21.6424 83.8139 22.5351C83.8139 23.7578 83.2897 24.8058 82.2413 25.6791C81.1929 26.533 79.6737 26.96 77.6839 26.96ZM87.1088 26.6107V6.05822H90.7996V11.3564L90.6713 14.122C91.3345 13.5592 92.0727 13.0643 92.8858 12.6373C93.6988 12.191 94.6403 11.9678 95.7101 11.9678C97.4004 11.9678 98.6307 12.4627 99.401 13.4524C100.171 14.4422 100.556 15.8396 100.556 17.6444V26.6107H96.8655V18.0811C96.8655 16.8973 96.6729 16.0627 96.2878 15.5776C95.9027 15.0924 95.2715 14.8498 94.3942 14.8498C93.7095 14.8498 93.0997 15.005 92.5648 15.3156C92.0513 15.6067 91.4629 16.0433 90.7996 16.6256V26.6107H87.1088ZM113.703 26.96C111.948 26.96 110.354 26.5816 108.921 25.8247C107.487 25.0678 106.342 23.9616 105.487 22.506C104.652 21.031 104.235 19.2456 104.235 17.1496C104.235 15.073 104.663 13.2972 105.519 11.8222C106.396 10.3279 107.562 9.19252 109.017 8.41622C110.472 7.62052 112.077 7.22267 113.831 7.22267C115.158 7.22267 116.335 7.46526 117.362 7.95044C118.389 8.43563 119.234 8.99844 119.897 9.63889L117.907 11.8222C117.372 11.3176 116.773 10.9198 116.11 10.6287C115.468 10.3181 114.741 10.1629 113.927 10.1629C112.793 10.1629 111.777 10.4443 110.878 11.0071C110.001 11.5505 109.306 12.3365 108.792 13.3651C108.3 14.3937 108.054 15.6261 108.054 17.0622C108.054 19.2359 108.578 20.9437 109.627 22.1858C110.675 23.4084 112.077 24.0198 113.831 24.0198C114.773 24.0198 115.607 23.8451 116.335 23.4958C117.062 23.127 117.725 22.6516 118.324 22.0693L120.314 24.1944C119.458 25.0872 118.474 25.7761 117.362 26.2613C116.27 26.7271 115.051 26.96 113.703 26.96ZM127.092 26.96C125.787 26.96 124.856 26.601 124.299 25.8829C123.765 25.1648 123.497 24.1847 123.497 22.9427V6.05822H127.188V23.1173C127.188 23.5249 127.274 23.816 127.445 23.9907C127.616 24.1459 127.798 24.2236 127.99 24.2236C128.076 24.2236 128.151 24.2236 128.215 24.2236C128.301 24.2041 128.418 24.1847 128.568 24.1653L129.049 26.6689C128.836 26.7465 128.557 26.8144 128.215 26.8727C127.894 26.9309 127.52 26.96 127.092 26.96ZM132.21 26.6107V12.3171H135.901V26.6107H132.21ZM134.072 9.81356C133.408 9.81356 132.874 9.63889 132.467 9.28956C132.06 8.94022 131.857 8.47444 131.857 7.89222C131.857 7.32941 132.06 6.87333 132.467 6.524C132.874 6.17467 133.408 6 134.072 6C134.735 6 135.27 6.17467 135.676 6.524C136.083 6.87333 136.286 7.32941 136.286 7.89222C136.286 8.47444 136.083 8.94022 135.676 9.28956C135.27 9.63889 134.735 9.81356 134.072 9.81356ZM147.189 26.96C145.756 26.96 144.461 26.6689 143.306 26.0867C142.172 25.485 141.263 24.6311 140.578 23.5249C139.915 22.3993 139.583 21.0504 139.583 19.4784C139.583 17.887 139.947 16.5382 140.674 15.432C141.402 14.3064 142.365 13.4524 143.563 12.8702C144.782 12.2686 146.088 11.9678 147.478 11.9678C148.484 11.9678 149.361 12.123 150.11 12.4336C150.859 12.7441 151.522 13.1225 152.1 13.5689L150.303 15.7522C149.896 15.4223 149.479 15.17 149.051 14.9953C148.623 14.8013 148.163 14.7042 147.671 14.7042C146.408 14.7042 145.371 15.1409 144.558 16.0142C143.766 16.8876 143.37 18.0423 143.37 19.4784C143.37 20.8952 143.755 22.0402 144.526 22.9136C145.317 23.7869 146.334 24.2236 147.575 24.2236C148.195 24.2236 148.773 24.1071 149.308 23.8742C149.864 23.6219 150.367 23.3308 150.816 23.0009L152.325 25.2133C151.597 25.7956 150.784 26.2322 149.885 26.5233C148.987 26.8144 148.088 26.96 147.189 26.96ZM155.435 26.6107V6.05822H159.062V18.8962H159.158L164.999 12.3171H169.043L163.651 18.1393L169.589 26.6107H165.577L161.533 20.41L159.062 22.9718V26.6107H155.435ZM176.6 26.96C175.53 26.96 174.46 26.7756 173.391 26.4069C172.321 26.0187 171.401 25.5433 170.63 24.9804L172.363 22.8262C173.07 23.3114 173.776 23.6996 174.482 23.9907C175.188 24.2818 175.937 24.4273 176.728 24.4273C177.584 24.4273 178.215 24.2624 178.622 23.9324C179.028 23.6025 179.232 23.195 179.232 22.7098C179.232 22.3022 179.061 21.9723 178.718 21.72C178.397 21.4483 177.98 21.2154 177.467 21.0213C176.953 20.8079 176.418 20.6041 175.862 20.41C175.177 20.1771 174.492 19.8957 173.808 19.5658C173.144 19.2164 172.599 18.7798 172.171 18.2558C171.743 17.7124 171.529 17.0428 171.529 16.2471C171.529 14.9856 172.043 13.957 173.07 13.1613C174.097 12.3656 175.487 11.9678 177.242 11.9678C178.354 11.9678 179.349 12.1424 180.227 12.4918C181.104 12.8411 181.863 13.239 182.505 13.6853L180.804 15.7231C180.248 15.3544 179.681 15.0633 179.103 14.8498C178.547 14.6169 177.959 14.5004 177.338 14.5004C176.546 14.5004 175.958 14.6557 175.573 14.9662C175.188 15.2573 174.995 15.6261 174.995 16.0724C174.995 16.6353 175.316 17.0622 175.958 17.3533C176.6 17.6444 177.349 17.9259 178.205 18.1976C178.932 18.4304 179.638 18.7216 180.323 19.0709C181.008 19.4008 181.575 19.8375 182.024 20.3809C182.495 20.9243 182.73 21.6424 182.73 22.5351C182.73 23.7578 182.206 24.8058 181.157 25.6791C180.109 26.533 178.59 26.96 176.6 26.96Z"/>
</mask>
<path d="M37 26.6107V7.572H42.6165C45.826 7.572 48.3294 8.358 50.1266 9.93C51.9239 11.502 52.8226 13.86 52.8226 17.004C52.8226 20.1674 51.9346 22.5642 50.1587 24.1944C48.3828 25.8053 45.933 26.6107 42.8091 26.6107H37ZM40.723 23.8742H42.3598C44.478 23.8742 46.1148 23.3211 47.2702 22.2149C48.4256 21.0893 49.0033 19.3523 49.0033 17.004C49.0033 14.6751 48.4256 12.977 47.2702 11.9096C46.1148 10.8421 44.478 10.3084 42.3598 10.3084H40.723V23.8742ZM60.5574 26.96C59.188 26.96 58.0647 26.5719 57.1874 25.7956C56.3316 25.0193 55.9037 24.0101 55.9037 22.768C55.9037 21.2348 56.6418 20.051 58.1182 19.2164C59.5945 18.3625 61.9481 17.7803 65.179 17.4698C65.1576 16.7129 64.9329 16.0627 64.505 15.5193C64.0984 14.9565 63.3603 14.6751 62.2905 14.6751C61.5202 14.6751 60.7606 14.811 60.0117 15.0827C59.2843 15.3544 58.5675 15.6843 57.8614 16.0724L56.5134 13.8309C57.3907 13.3263 58.3749 12.8896 59.4661 12.5209C60.5787 12.1521 61.7555 11.9678 62.9965 11.9678C64.965 11.9678 66.4306 12.5015 67.3935 13.5689C68.3777 14.6169 68.8698 16.1404 68.8698 18.1393V26.6107H65.8208L65.5641 25.0387H65.4357C64.7296 25.5821 63.9701 26.0381 63.157 26.4069C62.3653 26.7756 61.4988 26.96 60.5574 26.96ZM61.7448 24.34C62.3867 24.34 62.9644 24.2041 63.478 23.9324C64.0129 23.6413 64.5799 23.2532 65.179 22.768V19.5658C63.0393 19.8181 61.5523 20.1965 60.7178 20.7011C59.8834 21.1863 59.4661 21.7879 59.4661 22.506C59.4661 23.1464 59.6801 23.6122 60.108 23.9033C60.536 24.1944 61.0816 24.34 61.7448 24.34ZM77.6839 26.96C76.614 26.96 75.5442 26.7756 74.4744 26.4069C73.4046 26.0187 72.4846 25.5433 71.7143 24.9804L73.4474 22.8262C74.1535 23.3114 74.8595 23.6996 75.5656 23.9907C76.2717 24.2818 77.0206 24.4273 77.8122 24.4273C78.6681 24.4273 79.2993 24.2624 79.7058 23.9324C80.1123 23.6025 80.3156 23.195 80.3156 22.7098C80.3156 22.3022 80.1444 21.9723 79.8021 21.72C79.4812 21.4483 79.0639 21.2154 78.5504 21.0213C78.0369 20.8079 77.502 20.6041 76.9457 20.41C76.261 20.1771 75.5763 19.8957 74.8916 19.5658C74.2284 19.2164 73.6827 18.7798 73.2548 18.2558C72.8269 17.7124 72.6129 17.0428 72.6129 16.2471C72.6129 14.9856 73.1264 13.957 74.1535 13.1613C75.1805 12.3656 76.5713 11.9678 78.3258 11.9678C79.4384 11.9678 80.4333 12.1424 81.3105 12.4918C82.1878 12.8411 82.9474 13.239 83.5892 13.6853L81.8882 15.7231C81.3319 15.3544 80.7649 15.0633 80.1872 14.8498C79.6309 14.6169 79.0425 14.5004 78.422 14.5004C77.6304 14.5004 77.042 14.6557 76.6568 14.9662C76.2717 15.2573 76.0791 15.6261 76.0791 16.0724C76.0791 16.6353 76.4001 17.0622 77.042 17.3533C77.6839 17.6444 78.4327 17.9259 79.2886 18.1976C80.0161 18.4304 80.7221 18.7216 81.4068 19.0709C82.0915 19.4008 82.6585 19.8375 83.1078 20.3809C83.5785 20.9243 83.8139 21.6424 83.8139 22.5351C83.8139 23.7578 83.2897 24.8058 82.2413 25.6791C81.1929 26.533 79.6737 26.96 77.6839 26.96ZM87.1088 26.6107V6.05822H90.7996V11.3564L90.6713 14.122C91.3345 13.5592 92.0727 13.0643 92.8858 12.6373C93.6988 12.191 94.6403 11.9678 95.7101 11.9678C97.4004 11.9678 98.6307 12.4627 99.401 13.4524C100.171 14.4422 100.556 15.8396 100.556 17.6444V26.6107H96.8655V18.0811C96.8655 16.8973 96.6729 16.0627 96.2878 15.5776C95.9027 15.0924 95.2715 14.8498 94.3942 14.8498C93.7095 14.8498 93.0997 15.005 92.5648 15.3156C92.0513 15.6067 91.4629 16.0433 90.7996 16.6256V26.6107H87.1088ZM113.703 26.96C111.948 26.96 110.354 26.5816 108.921 25.8247C107.487 25.0678 106.342 23.9616 105.487 22.506C104.652 21.031 104.235 19.2456 104.235 17.1496C104.235 15.073 104.663 13.2972 105.519 11.8222C106.396 10.3279 107.562 9.19252 109.017 8.41622C110.472 7.62052 112.077 7.22267 113.831 7.22267C115.158 7.22267 116.335 7.46526 117.362 7.95044C118.389 8.43563 119.234 8.99844 119.897 9.63889L117.907 11.8222C117.372 11.3176 116.773 10.9198 116.11 10.6287C115.468 10.3181 114.741 10.1629 113.927 10.1629C112.793 10.1629 111.777 10.4443 110.878 11.0071C110.001 11.5505 109.306 12.3365 108.792 13.3651C108.3 14.3937 108.054 15.6261 108.054 17.0622C108.054 19.2359 108.578 20.9437 109.627 22.1858C110.675 23.4084 112.077 24.0198 113.831 24.0198C114.773 24.0198 115.607 23.8451 116.335 23.4958C117.062 23.127 117.725 22.6516 118.324 22.0693L120.314 24.1944C119.458 25.0872 118.474 25.7761 117.362 26.2613C116.27 26.7271 115.051 26.96 113.703 26.96ZM127.092 26.96C125.787 26.96 124.856 26.601 124.299 25.8829C123.765 25.1648 123.497 24.1847 123.497 22.9427V6.05822H127.188V23.1173C127.188 23.5249 127.274 23.816 127.445 23.9907C127.616 24.1459 127.798 24.2236 127.99 24.2236C128.076 24.2236 128.151 24.2236 128.215 24.2236C128.301 24.2041 128.418 24.1847 128.568 24.1653L129.049 26.6689C128.836 26.7465 128.557 26.8144 128.215 26.8727C127.894 26.9309 127.52 26.96 127.092 26.96ZM132.21 26.6107V12.3171H135.901V26.6107H132.21ZM134.072 9.81356C133.408 9.81356 132.874 9.63889 132.467 9.28956C132.06 8.94022 131.857 8.47444 131.857 7.89222C131.857 7.32941 132.06 6.87333 132.467 6.524C132.874 6.17467 133.408 6 134.072 6C134.735 6 135.27 6.17467 135.676 6.524C136.083 6.87333 136.286 7.32941 136.286 7.89222C136.286 8.47444 136.083 8.94022 135.676 9.28956C135.27 9.63889 134.735 9.81356 134.072 9.81356ZM147.189 26.96C145.756 26.96 144.461 26.6689 143.306 26.0867C142.172 25.485 141.263 24.6311 140.578 23.5249C139.915 22.3993 139.583 21.0504 139.583 19.4784C139.583 17.887 139.947 16.5382 140.674 15.432C141.402 14.3064 142.365 13.4524 143.563 12.8702C144.782 12.2686 146.088 11.9678 147.478 11.9678C148.484 11.9678 149.361 12.123 150.11 12.4336C150.859 12.7441 151.522 13.1225 152.1 13.5689L150.303 15.7522C149.896 15.4223 149.479 15.17 149.051 14.9953C148.623 14.8013 148.163 14.7042 147.671 14.7042C146.408 14.7042 145.371 15.1409 144.558 16.0142C143.766 16.8876 143.37 18.0423 143.37 19.4784C143.37 20.8952 143.755 22.0402 144.526 22.9136C145.317 23.7869 146.334 24.2236 147.575 24.2236C148.195 24.2236 148.773 24.1071 149.308 23.8742C149.864 23.6219 150.367 23.3308 150.816 23.0009L152.325 25.2133C151.597 25.7956 150.784 26.2322 149.885 26.5233C148.987 26.8144 148.088 26.96 147.189 26.96ZM155.435 26.6107V6.05822H159.062V18.8962H159.158L164.999 12.3171H169.043L163.651 18.1393L169.589 26.6107H165.577L161.533 20.41L159.062 22.9718V26.6107H155.435ZM176.6 26.96C175.53 26.96 174.46 26.7756 173.391 26.4069C172.321 26.0187 171.401 25.5433 170.63 24.9804L172.363 22.8262C173.07 23.3114 173.776 23.6996 174.482 23.9907C175.188 24.2818 175.937 24.4273 176.728 24.4273C177.584 24.4273 178.215 24.2624 178.622 23.9324C179.028 23.6025 179.232 23.195 179.232 22.7098C179.232 22.3022 179.061 21.9723 178.718 21.72C178.397 21.4483 177.98 21.2154 177.467 21.0213C176.953 20.8079 176.418 20.6041 175.862 20.41C175.177 20.1771 174.492 19.8957 173.808 19.5658C173.144 19.2164 172.599 18.7798 172.171 18.2558C171.743 17.7124 171.529 17.0428 171.529 16.2471C171.529 14.9856 172.043 13.957 173.07 13.1613C174.097 12.3656 175.487 11.9678 177.242 11.9678C178.354 11.9678 179.349 12.1424 180.227 12.4918C181.104 12.8411 181.863 13.239 182.505 13.6853L180.804 15.7231C180.248 15.3544 179.681 15.0633 179.103 14.8498C178.547 14.6169 177.959 14.5004 177.338 14.5004C176.546 14.5004 175.958 14.6557 175.573 14.9662C175.188 15.2573 174.995 15.6261 174.995 16.0724C174.995 16.6353 175.316 17.0622 175.958 17.3533C176.6 17.6444 177.349 17.9259 178.205 18.1976C178.932 18.4304 179.638 18.7216 180.323 19.0709C181.008 19.4008 181.575 19.8375 182.024 20.3809C182.495 20.9243 182.73 21.6424 182.73 22.5351C182.73 23.7578 182.206 24.8058 181.157 25.6791C180.109 26.533 178.59 26.96 176.6 26.96Z" fill="#151316" stroke="white" stroke-width="0.2" mask="url(#path-7-inside-1_2_2)"/>
</g>
<defs>
<linearGradient id="paint0_linear_2_2" x1="0.000488281" y1="15.7912" x2="32.0011" y2="15.7912" gradientUnits="userSpaceOnUse">
<stop stop-color="#E064D7"/>
<stop offset="1" stop-color="#911AFF"/>
</linearGradient>
<clipPath id="clip0_2_2">
<rect width="186" height="32" fill="white"/>
</clipPath>
</defs>
</svg>
