<svg width="144" height="39" viewBox="0 0 144 39" fill="none" xmlns="http://www.w3.org/2000/svg">
<g clip-path="url(#clip0_2_2)">
<path d="M53.2358 11.2834H53.1858V11.3334V13.5955V13.6455H53.2358H58.8623V15.7421H53.2358H53.1858V15.7921V18.2855V18.3355H53.2358H59.4538V20.4322H50.8469V9.18672H59.4538V11.2834H53.2358Z" fill="white" stroke="black" stroke-width="0.1"/>
<path d="M66.2787 20.629C64.3499 20.629 62.633 19.9864 61.3301 18.7958L62.6666 17.2005C63.7359 18.1118 64.9525 18.6672 66.3786 18.6672C66.9944 18.6672 67.4669 18.525 67.7867 18.2874C68.1078 18.0489 68.2721 17.7162 68.2721 17.3455C68.2721 17.1362 68.2295 16.9593 68.135 16.8066C68.0407 16.6541 67.8971 16.5297 67.7021 16.4208C67.3145 16.2042 66.7108 16.0419 65.8483 15.8439L65.8482 15.8438C64.6556 15.5721 63.6438 15.2684 62.9302 14.7626C62.221 14.26 61.8044 13.5565 61.8044 12.4743C61.8044 11.3902 62.2266 10.5211 62.951 9.92217C63.6764 9.32242 64.7088 8.99043 65.9331 8.99043C67.7463 8.99043 69.1569 9.55276 70.2938 10.517L69.0843 12.1867C68.0848 11.3925 66.9534 10.9522 65.8678 10.9522C65.3165 10.9522 64.8888 11.09 64.5978 11.3194C64.3059 11.5495 64.1548 11.8694 64.1548 12.2238C64.1548 12.4371 64.1986 12.6179 64.2951 12.7746C64.3914 12.9309 64.5377 13.0591 64.7361 13.1715C65.1305 13.3949 65.7429 13.562 66.6133 13.7602L66.6135 13.7602C67.8305 14.0318 68.8336 14.348 69.5323 14.8536C70.2269 15.3562 70.6225 16.0473 70.6225 17.0795C70.6225 18.1139 70.2212 18.9995 69.4803 19.6273C68.7386 20.2557 67.6526 20.629 66.2787 20.629Z" fill="white" stroke="black" stroke-width="0.1"/>
<path d="M75.7268 11.3334V11.2834H75.6768H72.2048V9.18672H81.5837V11.2834H78.1118H78.0618V11.3334V20.4322H75.7268V11.3334Z" fill="white" stroke="black" stroke-width="0.1"/>
<path d="M84.9409 18.6479H84.9072L84.8946 18.6791L84.1851 20.4322H81.5778L86.146 9.18672H88.794L93.3622 20.4322H90.7394L90.0262 18.6791L90.0135 18.6479H89.9799H89.976H84.9409ZM89.1349 16.6823H89.2091L89.1812 16.6135L87.5028 12.4707L87.4565 12.3563L87.4102 12.4707L85.7319 16.6135L85.704 16.6823H85.7782H89.1349Z" fill="white" stroke="black" stroke-width="0.1"/>
<path d="M96.6589 11.3334V11.2834H96.6089H93.137V9.18672H102.516V11.2834H99.0439H98.9939V11.3334V20.4322H96.6589V11.3334Z" fill="white" stroke="black" stroke-width="0.1"/>
<path d="M106.629 11.2834H106.579V11.3334V13.5955V13.6455H106.629H112.255V15.7421H106.629H106.579V15.7921V18.2855V18.3355H106.629H112.847V20.4322H104.24V9.18672H112.847V11.2834H106.629Z" fill="white" stroke="black" stroke-width="0.1"/>
<path d="M50.8469 38.7495V27.508H55.882C58.3104 27.508 60.0952 29.0747 60.0952 31.2886C60.0952 33.5025 58.3141 35.0692 55.882 35.0692H53.2166H53.1666V35.1192V38.7495H50.8469ZM55.567 32.9379V32.9417H55.617C56.2263 32.9417 56.744 32.7826 57.1106 32.4951C57.4784 32.2068 57.691 31.7916 57.691 31.2886C57.691 30.7856 57.4784 30.3703 57.1106 30.082C56.744 29.7946 56.2263 29.6354 55.617 29.6354H53.2127H53.1627V29.6854V32.8879V32.9379H53.2127H55.567Z" fill="white" stroke="black" stroke-width="0.1"/>
<path d="M64.3545 35.1231V38.7534H62.0348V27.508H67.0699C69.4983 27.508 71.2831 29.0748 71.2831 31.2886C71.2831 32.95 70.2763 34.254 68.7509 34.7907L68.6887 34.8126L68.7266 34.8666L71.452 38.7496H68.8062L66.239 35.0944L66.2241 35.0731H66.1981H64.4045H64.3545V35.1231ZM64.3545 32.8918V32.9418H64.4045H66.8088C67.4181 32.9418 67.9358 32.7826 68.3024 32.4952C68.6702 32.2069 68.8828 31.7916 68.8828 31.2886C68.8828 30.7856 68.6702 30.3704 68.3024 30.0821C67.9358 29.7946 67.4181 29.6355 66.8088 29.6355H64.4045H64.3545V29.6855V32.8879V32.8918Z" fill="white" stroke="black" stroke-width="0.1"/>
<path d="M73.0768 33.1233C73.0768 29.9651 75.8184 27.3117 79.0336 27.3117C82.2489 27.3117 84.9905 29.9651 84.9905 33.1233C84.9905 36.2818 82.2831 38.9502 79.0336 38.9502C75.7842 38.9502 73.0768 36.2818 73.0768 33.1233ZM82.6056 33.1233C82.6056 31.1321 80.9719 29.4238 79.0336 29.4238C77.0951 29.4238 75.4771 31.1324 75.4771 33.1233C75.4771 35.1141 77.1104 36.8382 79.0336 36.8382C80.9565 36.8382 82.6056 35.1299 82.6056 33.1233Z" fill="white" stroke="black" stroke-width="0.1"/>
<path d="M89.8107 29.6546V29.6046H89.7607H86.2888V27.508H95.6676V29.6046H92.1957H92.1457V29.6546V38.7534H89.8107V29.6546Z" fill="white" stroke="black" stroke-width="0.1"/>
<path d="M96.3937 33.1233C96.3937 29.9651 99.1353 27.3117 102.351 27.3117C105.566 27.3117 108.307 29.9651 108.307 33.1233C108.307 36.2818 105.6 38.9502 102.351 38.9502C99.1011 38.9502 96.3937 36.2818 96.3937 33.1233ZM105.922 33.1233C105.922 31.1321 104.288 29.4238 102.351 29.4238C100.412 29.4238 98.794 31.1324 98.794 33.1233C98.794 35.1141 100.427 36.8382 102.351 36.8382C104.273 36.8382 105.922 35.1299 105.922 33.1233Z" fill="white" stroke="black" stroke-width="0.1"/>
<path d="M110.086 33.1233C110.086 29.9651 112.827 27.3117 116.043 27.3117C117.723 27.3117 119.273 28.0187 120.364 29.1588L118.681 30.6744C118.018 29.9273 117.079 29.4238 116.043 29.4238C114.119 29.4238 112.486 31.1322 112.486 33.1233C112.486 35.1141 114.119 36.8382 116.043 36.8382C117.079 36.8382 118.015 36.3345 118.681 35.5875L120.364 37.1029C119.273 38.2286 117.722 38.9502 116.043 38.9502C112.827 38.9502 110.086 36.2816 110.086 33.1233Z" fill="white" stroke="black" stroke-width="0.1"/>
<path d="M121.619 33.1233C121.619 29.9651 124.361 27.3117 127.576 27.3117C130.792 27.3117 133.533 29.9651 133.533 33.1233C133.533 36.2818 130.825 38.9502 127.576 38.9502C124.327 38.9502 121.619 36.2818 121.619 33.1233ZM131.148 33.1233C131.148 31.1321 129.514 29.4238 127.576 29.4238C125.637 29.4238 124.02 31.1324 124.02 33.1233C124.02 35.1141 125.653 36.8382 127.576 36.8382C129.499 36.8382 131.148 35.1299 131.148 33.1233Z" fill="white" stroke="black" stroke-width="0.1"/>
<path d="M138.054 36.6568H143.634V38.7534H135.669V27.508H138.004V36.6068V36.6568H138.054Z" fill="white" stroke="black" stroke-width="0.1"/>
<path d="M0 38.9576V10.8791L19.1881 0L38.8947 10.9639V38.9576H33.8365V14.1394L19.1036 6.2161L5.07739 13.9005V16.4902L14.9518 10.8791L29.17 18.9951V38.9576H24.4383V21.5849L14.9518 16.232L5.07739 21.8238V24.2825L9.29447 21.6504L18.6734 26.6795V38.9576H14.0915V29.8088L9.29447 26.8722L5.07739 29.8088V38.9576H0Z" fill="white"/>
</g>
<defs>
<clipPath id="clip0_2_2">
<rect width="144" height="39" fill="white"/>
</clipPath>
</defs>
</svg>
