<svg width="159" height="34" viewBox="0 0 159 34" fill="none" xmlns="http://www.w3.org/2000/svg">
<path d="M41.78 12.58C42.1133 12.02 42.5533 11.5867 43.1 11.28C43.66 10.96 44.32 10.8 45.08 10.8V13.16H44.5C43.6067 13.16 42.9267 13.3867 42.46 13.84C42.0067 14.2933 41.78 15.08 41.78 16.2V22H39.5V10.98H41.78V12.58ZM57.2758 16.22C57.2758 16.6333 57.2491 17.0067 57.1958 17.34H48.7758C48.8424 18.22 49.1691 18.9267 49.7558 19.46C50.3424 19.9933 51.0624 20.26 51.9158 20.26C53.1424 20.26 54.0091 19.7467 54.5158 18.72H56.9758C56.6424 19.7333 56.0358 20.5667 55.1558 21.22C54.2891 21.86 53.2091 22.18 51.9158 22.18C50.8624 22.18 49.9158 21.9467 49.0758 21.48C48.2491 21 47.5958 20.3333 47.1158 19.48C46.6491 18.6133 46.4158 17.6133 46.4158 16.48C46.4158 15.3467 46.6424 14.3533 47.0958 13.5C47.5624 12.6333 48.2091 11.9667 49.0358 11.5C49.8758 11.0333 50.8358 10.8 51.9158 10.8C52.9558 10.8 53.8824 11.0267 54.6958 11.48C55.5091 11.9333 56.1424 12.5733 56.5958 13.4C57.0491 14.2133 57.2758 15.1533 57.2758 16.22ZM54.8958 15.5C54.8824 14.66 54.5824 13.9867 53.9958 13.48C53.4091 12.9733 52.6824 12.72 51.8158 12.72C51.0291 12.72 50.3558 12.9733 49.7958 13.48C49.2358 13.9733 48.9024 14.6467 48.7958 15.5H54.8958ZM58.7595 16.48C58.7595 15.3467 58.9862 14.3533 59.4395 13.5C59.9062 12.6333 60.5462 11.9667 61.3595 11.5C62.1729 11.0333 63.1062 10.8 64.1595 10.8C65.4929 10.8 66.5929 11.12 67.4595 11.76C68.3395 12.3867 68.9329 13.2867 69.2395 14.46H66.7795C66.5795 13.9133 66.2595 13.4867 65.8195 13.18C65.3795 12.8733 64.8262 12.72 64.1595 12.72C63.2262 12.72 62.4795 13.0533 61.9195 13.72C61.3729 14.3733 61.0995 15.2933 61.0995 16.48C61.0995 17.6667 61.3729 18.5933 61.9195 19.26C62.4795 19.9267 63.2262 20.26 64.1595 20.26C65.4795 20.26 66.3529 19.68 66.7795 18.52H69.2395C68.9195 19.64 68.3195 20.5333 67.4395 21.2C66.5595 21.8533 65.4662 22.18 64.1595 22.18C63.1062 22.18 62.1729 21.9467 61.3595 21.48C60.5462 21 59.9062 20.3333 59.4395 19.48C58.9862 18.6133 58.7595 17.6133 58.7595 16.48ZM76.2917 22.18C75.2517 22.18 74.3117 21.9467 73.4717 21.48C72.6317 21 71.9717 20.3333 71.4917 19.48C71.0117 18.6133 70.7717 17.6133 70.7717 16.48C70.7717 15.36 71.0184 14.3667 71.5117 13.5C72.0051 12.6333 72.6784 11.9667 73.5317 11.5C74.3851 11.0333 75.3384 10.8 76.3917 10.8C77.4451 10.8 78.3984 11.0333 79.2517 11.5C80.1051 11.9667 80.7784 12.6333 81.2717 13.5C81.7651 14.3667 82.0117 15.36 82.0117 16.48C82.0117 17.6 81.7584 18.5933 81.2517 19.46C80.7451 20.3267 80.0517 21 79.1717 21.48C78.3051 21.9467 77.3451 22.18 76.2917 22.18ZM76.2917 20.2C76.8784 20.2 77.4251 20.06 77.9317 19.78C78.4517 19.5 78.8717 19.08 79.1917 18.52C79.5117 17.96 79.6717 17.28 79.6717 16.48C79.6717 15.68 79.5184 15.0067 79.2117 14.46C78.9051 13.9 78.4984 13.48 77.9917 13.2C77.4851 12.92 76.9384 12.78 76.3517 12.78C75.7651 12.78 75.2184 12.92 74.7117 13.2C74.2184 13.48 73.8251 13.9 73.5317 14.46C73.2384 15.0067 73.0917 15.68 73.0917 16.48C73.0917 17.6667 73.3917 18.5867 73.9917 19.24C74.6051 19.88 75.3717 20.2 76.2917 20.2ZM89.8256 10.8C90.6923 10.8 91.4656 10.98 92.1456 11.34C92.839 11.7 93.379 12.2333 93.7656 12.94C94.1523 13.6467 94.3456 14.5 94.3456 15.5V22H92.0856V15.84C92.0856 14.8533 91.839 14.1 91.3456 13.58C90.8523 13.0467 90.179 12.78 89.3256 12.78C88.4723 12.78 87.7923 13.0467 87.2856 13.58C86.7923 14.1 86.5456 14.8533 86.5456 15.84V22H84.2656V10.98H86.5456V12.24C86.919 11.7867 87.3923 11.4333 87.9656 11.18C88.5523 10.9267 89.1723 10.8 89.8256 10.8ZM107.354 16.22C107.354 16.6333 107.327 17.0067 107.274 17.34H98.8539C98.9206 18.22 99.2472 18.9267 99.8339 19.46C100.421 19.9933 101.141 20.26 101.994 20.26C103.221 20.26 104.087 19.7467 104.594 18.72H107.054C106.721 19.7333 106.114 20.5667 105.234 21.22C104.367 21.86 103.287 22.18 101.994 22.18C100.941 22.18 99.9939 21.9467 99.1539 21.48C98.3272 21 97.6739 20.3333 97.1939 19.48C96.7272 18.6133 96.4939 17.6133 96.4939 16.48C96.4939 15.3467 96.7206 14.3533 97.1739 13.5C97.6406 12.6333 98.2872 11.9667 99.1139 11.5C99.9539 11.0333 100.914 10.8 101.994 10.8C103.034 10.8 103.961 11.0267 104.774 11.48C105.587 11.9333 106.221 12.5733 106.674 13.4C107.127 14.2133 107.354 15.1533 107.354 16.22ZM104.974 15.5C104.961 14.66 104.661 13.9867 104.074 13.48C103.487 12.9733 102.761 12.72 101.894 12.72C101.107 12.72 100.434 12.9733 99.8739 13.48C99.3139 13.9733 98.9806 14.6467 98.8739 15.5H104.974ZM108.838 16.48C108.838 15.3467 109.064 14.3533 109.518 13.5C109.984 12.6333 110.624 11.9667 111.438 11.5C112.251 11.0333 113.184 10.8 114.238 10.8C115.571 10.8 116.671 11.12 117.538 11.76C118.418 12.3867 119.011 13.2867 119.318 14.46H116.858C116.658 13.9133 116.338 13.4867 115.898 13.18C115.458 12.8733 114.904 12.72 114.238 12.72C113.304 12.72 112.558 13.0533 111.998 13.72C111.451 14.3733 111.178 15.2933 111.178 16.48C111.178 17.6667 111.451 18.5933 111.998 19.26C112.558 19.9267 113.304 20.26 114.238 20.26C115.558 20.26 116.431 19.68 116.858 18.52H119.318C118.998 19.64 118.398 20.5333 117.518 21.2C116.638 21.8533 115.544 22.18 114.238 22.18C113.184 22.18 112.251 21.9467 111.438 21.48C110.624 21 109.984 20.3333 109.518 19.48C109.064 18.6133 108.838 17.6133 108.838 16.48ZM124.25 12.84V18.94C124.25 19.3533 124.343 19.6533 124.53 19.84C124.73 20.0133 125.063 20.1 125.53 20.1H126.93V22H125.13C124.103 22 123.317 21.76 122.77 21.28C122.223 20.8 121.95 20.02 121.95 18.94V12.84H120.65V10.98H121.95V8.24H124.25V10.98H126.93V12.84H124.25ZM129.951 22.14C129.538 22.14 129.191 22 128.911 21.72C128.631 21.44 128.491 21.0933 128.491 20.68C128.491 20.2667 128.631 19.92 128.911 19.64C129.191 19.36 129.538 19.22 129.951 19.22C130.351 19.22 130.691 19.36 130.971 19.64C131.251 19.92 131.391 20.2667 131.391 20.68C131.391 21.0933 131.251 21.44 130.971 21.72C130.691 22 130.351 22.14 129.951 22.14ZM133.095 16.44C133.095 15.3333 133.322 14.3533 133.775 13.5C134.242 12.6467 134.869 11.9867 135.655 11.52C136.455 11.04 137.335 10.8 138.295 10.8C139.162 10.8 139.915 10.9733 140.555 11.32C141.209 11.6533 141.729 12.0733 142.115 12.58V10.98H144.415V22H142.115V20.36C141.729 20.88 141.202 21.3133 140.535 21.66C139.869 22.0067 139.109 22.18 138.255 22.18C137.309 22.18 136.442 21.94 135.655 21.46C134.869 20.9667 134.242 20.2867 133.775 19.42C133.322 18.54 133.095 17.5467 133.095 16.44ZM142.115 16.48C142.115 15.72 141.955 15.06 141.635 14.5C141.329 13.94 140.922 13.5133 140.415 13.22C139.909 12.9267 139.362 12.78 138.775 12.78C138.189 12.78 137.642 12.9267 137.135 13.22C136.629 13.5 136.215 13.92 135.895 14.48C135.589 15.0267 135.435 15.68 135.435 16.44C135.435 17.2 135.589 17.8667 135.895 18.44C136.215 19.0133 136.629 19.4533 137.135 19.76C137.655 20.0533 138.202 20.2 138.775 20.2C139.362 20.2 139.909 20.0533 140.415 19.76C140.922 19.4667 141.329 19.04 141.635 18.48C141.955 17.9067 142.115 17.24 142.115 16.48ZM148.57 9.52C148.157 9.52 147.81 9.38 147.53 9.1C147.25 8.82 147.11 8.47333 147.11 8.06C147.11 7.64667 147.25 7.3 147.53 7.02C147.81 6.74 148.157 6.6 148.57 6.6C148.97 6.6 149.31 6.74 149.59 7.02C149.87 7.3 150.01 7.64667 150.01 8.06C150.01 8.47333 149.87 8.82 149.59 9.1C149.31 9.38 148.97 9.52 148.57 9.52ZM149.69 10.98V22H147.41V10.98H149.69Z" fill="#E8E1E1"/>
<g clip-path="url(#clip0_3_46)">
<path fill-rule="evenodd" clip-rule="evenodd" d="M21.9803 9.0507C23.0167 8.45797 24.1735 8.25935 25.2676 8.25935C26.2741 8.25935 27.2726 8.44118 28.2162 8.79631L28.5146 8.90862C28.9581 9.0755 29.386 9.28198 29.7934 9.52561C31.2783 10.4136 32.44 11.7647 33.105 13.3772L33.3496 13.9702C34.3591 16.4177 34.1861 19.2023 32.8819 21.5022C31.3827 24.146 28.6038 25.7759 25.5955 25.7759H25.2845C25.21 25.7759 25.1659 25.7759 25.123 25.7754C22.9709 25.7519 20.9204 24.8444 19.4404 23.2606C19.411 23.2291 19.3811 23.1965 19.3309 23.1415L13.4352 16.6946C13.1125 16.3417 13.1331 15.7903 13.4813 15.4631C13.8295 15.1359 14.3734 15.1568 14.6961 15.5098L20.5876 21.9521C20.6429 22.0126 20.6663 22.0381 20.6886 22.062C21.8484 23.3031 23.4552 24.0142 25.1415 24.0327C25.174 24.033 25.2083 24.033 25.2897 24.033H25.5955C27.9884 24.033 30.1988 22.7366 31.3913 20.6336C32.4287 18.8042 32.5663 16.5893 31.7633 14.6424L31.5188 14.0494C30.9969 12.784 30.0852 11.7236 28.9198 11.0267C28.6001 10.8355 28.2642 10.6735 27.9162 10.5425L27.6178 10.4302C26.8657 10.1471 26.0698 10.0022 25.2676 10.0022C24.3662 10.0022 23.5266 10.1674 22.8251 10.5686C22.2862 10.8768 21.7397 11.2455 21.3685 11.6219L20.1527 10.3895C20.6883 9.84656 21.3939 9.38603 21.9803 9.0507Z" fill="#E8E1E1"/>
<path fill-rule="evenodd" clip-rule="evenodd" d="M13.3439 9.87561C12.4312 9.79363 11.5117 9.90883 10.6462 10.2136L10.2804 10.3424C8.52586 10.9602 7.09829 12.2809 6.33138 13.9958C5.59203 15.649 5.53145 17.5456 6.10095 19.3009C6.11975 19.3589 6.13849 19.4168 6.15717 19.4746C7.19319 22.6817 10.3394 24.5982 13.6443 24.0687C14.9394 23.8612 16.1403 23.332 17.0443 22.4664L18.2248 23.7335C17.0219 24.8852 15.4802 25.5391 13.9127 25.7902C9.79079 26.4506 5.82712 24.0533 4.52323 20.017C4.50476 19.9598 4.48625 19.9026 4.46769 19.8454C3.77377 17.7066 3.83508 15.3565 4.76545 13.2762C5.7269 11.1263 7.5166 9.47059 9.71627 8.69604L10.082 8.56726C11.1772 8.1816 12.3407 8.03582 13.4956 8.13956C15.3386 8.3051 17.0722 9.09773 18.4145 10.3886L19.6237 11.5515L25.6052 17.9591C25.9315 18.3086 25.9165 18.8602 25.5716 19.191C25.2268 19.5218 24.6827 19.5065 24.3564 19.157L18.4068 12.7836L17.2311 11.653C16.1704 10.6328 14.8004 10.0064 13.3439 9.87561Z" fill="#E8E1E1"/>
<path fill-rule="evenodd" clip-rule="evenodd" d="M26.5214 13.3778C25.4914 13.0179 24.4135 13.1578 23.5683 13.9393C23.5406 13.9648 23.5138 13.99 23.488 14.0149L22.3055 12.7497C22.3397 12.7169 22.3744 12.6841 22.4097 12.6515C23.7866 11.3786 25.5476 11.194 27.0818 11.7302C28.5989 12.2604 29.9326 13.5002 30.5874 15.1491L30.6194 15.2294C30.848 15.8052 30.979 16.416 31.0067 17.036C31.2358 22.154 25.049 24.7864 21.6058 21.036L15.5163 14.4032C13.2576 11.9431 9.19428 13.5632 9.19428 16.9239C9.19428 17.5258 9.33914 18.1187 9.61629 18.651L9.77072 18.9476C10.2011 19.7742 10.9007 20.4242 11.7506 20.7869C12.7617 21.2185 13.7714 21.172 14.4655 20.6171C14.6361 20.4807 14.8143 20.3285 14.9963 20.1597L16.1569 21.4455C15.9423 21.6445 15.7321 21.8241 15.5303 21.9855C14.1887 23.0582 12.4617 22.9815 11.0834 22.3932C9.86726 21.8741 8.86608 20.944 8.25018 19.7611L8.09575 19.4644C7.68805 18.6814 7.47496 17.8094 7.47496 16.9239C7.47496 11.9801 13.4523 9.59685 16.7749 13.2159L22.8644 19.8487C25.2176 22.4118 29.4457 20.6127 29.2892 17.115C29.2702 16.6912 29.1807 16.2738 29.0244 15.8803L28.9925 15.7999C28.5241 14.6207 27.5685 13.7438 26.5214 13.3778Z" fill="#E8E1E1"/>
<path fill-rule="evenodd" clip-rule="evenodd" d="M20.5536 5.90774C19.4808 5.66846 18.3756 5.68843 17.3214 5.97529C16.4044 6.22482 15.3479 6.58 14.5383 7.03403C14.1332 7.26123 13.8328 7.48979 13.6425 7.70634C13.4578 7.91657 13.4144 8.06979 13.4144 8.18013H11.6951C11.6951 7.52104 11.9848 6.97263 12.3585 6.54725C12.7267 6.12821 13.21 5.78718 13.7059 5.50902C14.6985 4.95235 15.9139 4.55373 16.8756 4.29203C18.2029 3.93089 19.5878 3.90779 20.9231 4.2056C22.0132 4.44872 23.4407 4.84186 24.6057 5.4318C25.1871 5.7262 25.7536 6.09441 26.1793 6.5592C26.6143 7.03421 26.9367 7.65249 26.9078 8.39913L25.1898 8.33083C25.1959 8.17312 25.1393 7.98528 24.9192 7.74493C24.6897 7.49434 24.3251 7.23791 23.8374 6.99093C22.8641 6.49808 21.6014 6.14142 20.5536 5.90774Z" fill="#E8E1E1"/>
<path fill-rule="evenodd" clip-rule="evenodd" d="M20.5793 28.0922C19.5064 28.3316 18.4011 28.3116 17.3468 28.0247C16.4299 27.7751 15.3735 27.42 14.5641 26.9659C14.1591 26.7388 13.8587 26.5102 13.6685 26.2937C13.4839 26.0835 13.4405 25.9303 13.4405 25.8199H11.7212C11.7212 26.4789 12.0108 27.0273 12.3845 27.4527C12.7526 27.8717 13.2358 28.2127 13.7317 28.4909C14.7241 29.0476 15.9393 29.4462 16.901 29.7079C18.2283 30.0691 19.6134 30.0922 20.9488 29.7944C22.0388 29.5512 23.4662 29.1581 24.631 28.5681C25.2123 28.2737 25.7788 27.9055 26.2043 27.4407C26.6393 26.9657 26.9617 26.3475 26.9328 25.6009L25.2148 25.6692C25.2209 25.8269 25.1642 26.0148 24.9442 26.2551C24.7147 26.5057 24.3502 26.7621 23.8626 27.009C22.8895 27.5019 21.627 27.8585 20.5793 28.0922Z" fill="#E8E1E1"/>
</g>
<defs>
<clipPath id="clip0_3_46">
<rect width="38" height="34" fill="white"/>
</clipPath>
</defs>
</svg>
