<svg width="130" height="16" viewBox="0 0 130 16" fill="none" xmlns="http://www.w3.org/2000/svg">
<g clip-path="url(#clip0_4_47)">
<path d="M14.9423 11.1799H12.6315C12.5417 11.1799 12.4639 11.2679 12.4639 11.3677C12.4639 11.4733 12.5417 11.5554 12.6315 11.5554H14.9423C15.0321 11.5554 15.1099 11.4674 15.1099 11.3618C15.1099 11.2562 15.038 11.174 14.9423 11.174V11.1799Z" fill="#1F8E9F"/>
<path d="M14.9423 11.7021H12.6315C12.5417 11.7021 12.4639 11.7901 12.4639 11.8957C12.4639 12.0013 12.5417 12.0835 12.6315 12.0835H12.8769L13.1284 12.5763C13.1284 12.5763 13.2182 12.7288 13.3079 12.7523C13.5055 12.8344 14.0802 12.8462 14.3017 12.7523C14.3017 12.7523 14.4094 12.723 14.4932 12.5646C14.5591 12.4414 14.6968 12.195 14.7566 12.0776H14.9423C15.0321 12.0776 15.1099 11.9954 15.1099 11.8898C15.1099 11.7901 15.0321 11.7021 14.9423 11.7021Z" fill="#1F8E9F"/>
<path d="M14.9423 10.6578H12.6315C12.5417 10.6578 12.4639 10.7458 12.4639 10.8514C12.4639 10.957 12.5417 11.0392 12.6315 11.0392H14.9423C15.0321 11.0392 15.1099 10.9511 15.1099 10.8455C15.1099 10.7399 15.0321 10.6578 14.9423 10.6578Z" fill="#1F8E9F"/>
<path d="M18.0674 8.86832C17.8698 8.77446 17.6782 8.68053 17.4807 8.5808C17.367 8.528 17.2113 8.5456 17.1455 8.6688C17.0916 8.78032 17.1096 8.93286 17.2353 8.99739C17.4328 9.09126 17.6244 9.18512 17.8219 9.28486C17.9297 9.34939 18.0973 9.31419 18.1572 9.19686C18.1811 9.15579 18.1931 9.10886 18.1871 9.06192C18.1871 8.97979 18.1452 8.90939 18.0674 8.86832Z" fill="#1F8E9F"/>
<path d="M10.416 8.66885C10.3502 8.54565 10.1945 8.52805 10.0808 8.58672C9.88321 8.68059 9.69165 8.78032 9.5001 8.87419C9.42228 8.91525 9.38636 8.98565 9.38038 9.06779C9.38038 9.11472 9.38636 9.16752 9.41031 9.20859C9.47017 9.32592 9.63778 9.35531 9.74553 9.29072C9.94307 9.19685 10.1347 9.09712 10.3322 9.00325C10.4579 8.94459 10.4759 8.78619 10.416 8.67472V8.66885Z" fill="#1F8E9F"/>
<path d="M18.2528 5.84677C18.0373 5.88784 17.8278 5.93475 17.6123 5.97582C17.5524 5.98755 17.5045 6.02281 17.4746 6.06974C17.4566 6.09321 17.4507 6.11668 17.4447 6.14014C17.4327 6.18121 17.4327 6.22814 17.4447 6.26921C17.4447 6.26921 17.4447 6.26921 17.4447 6.27508C17.4686 6.39241 17.5584 6.44521 17.6482 6.44521C17.6781 6.44521 17.7081 6.44521 17.744 6.44521C17.9535 6.39828 18.169 6.35134 18.3786 6.30441C18.6898 6.23401 18.5581 5.77636 18.2528 5.8409V5.84677Z" fill="#1F8E9F"/>
<path d="M10.1234 6.24575C10.1473 6.13429 10.0934 6.01695 9.94978 5.98756C9.74021 5.94063 9.52471 5.89372 9.3152 5.84678C9.18949 5.81745 9.04582 5.88199 9.01589 6.01695C9.01589 6.01695 9.01589 6.01695 9.01589 6.02282C8.99195 6.14602 9.05181 6.28682 9.18949 6.31615C9.40499 6.35722 9.6145 6.40415 9.83006 6.44522C9.99168 6.48042 10.1054 6.36309 10.1294 6.23989L10.1234 6.24575Z" fill="#1F8E9F"/>
<path d="M16.8579 3.34153C16.7621 3.26526 16.6005 3.23592 16.5107 3.34153C16.373 3.50581 16.2414 3.67595 16.1036 3.84023C16.0198 3.93997 16.0019 4.08078 16.1036 4.18052C16.1036 4.18052 16.1156 4.19225 16.1216 4.19812C16.2114 4.26853 16.373 4.27439 16.4509 4.18052C16.5885 4.01624 16.7262 3.8461 16.8639 3.68182C16.9417 3.58795 16.9717 3.42954 16.8639 3.34153H16.8579Z" fill="#1F8E9F"/>
<path d="M11.4522 3.84023C11.3145 3.67595 11.1828 3.5058 11.0451 3.34153C10.9553 3.23005 10.7937 3.27113 10.6979 3.34153C10.5842 3.42954 10.6261 3.58794 10.6979 3.68182C10.8356 3.84609 10.9733 4.01037 11.1109 4.18052C11.1529 4.23332 11.2307 4.25679 11.2966 4.25092C11.3564 4.25092 11.4163 4.22159 11.4522 4.18052C11.4941 4.13945 11.5121 4.09251 11.5181 4.04558C11.524 3.97517 11.5001 3.8989 11.4522 3.84023Z" fill="#1F8E9F"/>
<path d="M13.7804 2.26787C13.6487 2.26787 13.535 2.37347 13.535 2.50841C13.535 2.71963 13.535 2.93671 13.535 3.14793C13.535 3.277 13.6427 3.38848 13.7804 3.38848C13.8523 3.38848 13.9061 3.36501 13.942 3.32981C13.9899 3.28874 14.0259 3.23007 14.0259 3.15379C14.0259 2.94258 14.0259 2.7255 14.0259 2.51428C14.0259 2.38521 13.9181 2.27373 13.7864 2.27373L13.7804 2.26787Z" fill="#1F8E9F"/>
<path d="M14.5773 7.36634C14.6012 7.31941 14.6072 7.28421 14.5893 7.26074C14.5773 7.23727 14.5593 7.22554 14.5473 7.22554C14.5114 7.22554 14.4635 7.27247 14.4455 7.31354C14.4096 7.37807 14.4156 7.46021 14.4276 7.52474C14.4994 7.47194 14.5533 7.41914 14.5833 7.36047L14.5773 7.36634Z" fill="#1F8E9F"/>
<path d="M13.5832 7.27834C13.6011 7.24314 13.6071 7.17861 13.5832 7.15514C13.5832 7.15514 13.5772 7.14928 13.5652 7.14928C13.5592 7.14928 13.5473 7.14928 13.5293 7.16101C13.4874 7.17861 13.4515 7.21381 13.4275 7.26661C13.3856 7.35461 13.3797 7.44261 13.4096 7.51301C13.4096 7.50714 13.4216 7.50128 13.4275 7.48954C13.4814 7.42501 13.5413 7.35461 13.5772 7.28421L13.5832 7.27834Z" fill="#1F8E9F"/>
<path d="M12.8465 8.28746C13.1578 8.95046 13.4332 9.68385 13.6786 10.5346H14.0318C14.2593 9.73078 14.5107 9.03846 14.7981 8.4048C14.5706 8.2992 14.391 8.1056 14.2892 7.84746C14.1276 7.912 13.9659 7.93546 13.7983 7.91786C13.6547 7.90613 13.5289 7.87093 13.4332 7.81813C13.3373 7.92373 13.1218 8.1584 12.8525 8.28746H12.8465Z" fill="#1F8E9F"/>
<path d="M12.3206 7.87094C12.3206 7.87094 12.3086 7.87094 12.3027 7.87094C12.2727 7.87094 12.2368 7.88267 12.2308 7.90614C12.2189 7.95307 12.2428 8.00001 12.2667 8.02934C12.3206 8.09974 12.4284 8.15254 12.5122 8.15254C12.5182 8.15254 12.5242 8.15254 12.5302 8.15254C12.5122 8.11734 12.4943 8.07627 12.4703 8.04107C12.4284 7.96481 12.3805 7.88267 12.3086 7.87094H12.3206Z" fill="#1F8E9F"/>
<path d="M15.3018 7.93546C15.3018 7.93546 15.2719 7.9472 15.218 8.02933C15.1821 8.09973 15.1522 8.17013 15.1163 8.24053C15.1941 8.23466 15.254 8.20533 15.2959 8.16426C15.3318 8.12906 15.3437 8.08213 15.3378 8.02346C15.3378 7.95893 15.3138 7.93546 15.3078 7.9296L15.3018 7.93546Z" fill="#1F8E9F"/>
<path d="M13.7747 3.9341C12.0566 3.9341 10.6617 5.30699 10.6617 6.99081C10.6617 8.22293 11.404 9.27899 12.4756 9.76012V10.3527C12.4756 10.4524 12.5594 10.5346 12.6612 10.5346H13.4394C13.2 9.70732 12.9366 8.99153 12.6312 8.352C12.4576 8.3872 12.302 8.34613 12.1703 8.2288C12.0805 8.15253 11.9967 8.0176 12.0087 7.88853C12.0147 7.81221 12.0566 7.74767 12.1284 7.70074C12.1823 7.66554 12.2361 7.65381 12.29 7.65381C12.4636 7.65381 12.6013 7.80634 12.6671 7.93547C12.6911 7.9824 12.715 8.0352 12.739 8.08213C12.9186 8 13.0982 7.85333 13.2478 7.67727C13.2059 7.61861 13.176 7.54821 13.17 7.47781C13.1521 7.34874 13.2179 7.15514 13.3197 7.04367C13.4274 6.92041 13.5711 6.89695 13.6969 6.98495C13.7687 7.03194 13.8046 7.09647 13.8166 7.16687C13.8405 7.33114 13.6909 7.50714 13.5831 7.63621C13.5831 7.63621 13.5711 7.64794 13.5711 7.65381C13.601 7.66554 13.637 7.67727 13.6669 7.68314C13.8525 7.71834 14.0201 7.71834 14.1458 7.67141C14.1698 7.66554 14.1937 7.65381 14.2117 7.64207C14.1997 7.59514 14.1937 7.55407 14.1937 7.50714C14.1757 7.31941 14.2296 7.17861 14.3613 7.07301C14.4152 7.03194 14.481 7.00847 14.5469 7.00847C14.6128 7.00847 14.6667 7.03194 14.7086 7.07301C14.7804 7.14927 14.8163 7.23141 14.8043 7.32527C14.7864 7.50714 14.6128 7.64794 14.541 7.70074C14.517 7.71834 14.4991 7.73007 14.475 7.74181C14.529 7.8944 14.6487 8.1232 14.8762 8.2112C14.9241 8.11733 14.966 8.02347 15.0139 7.93547C15.0139 7.9296 15.0198 7.92373 15.0258 7.91787C15.0677 7.8592 15.1755 7.71834 15.3012 7.71834C15.3491 7.71834 15.397 7.73594 15.4329 7.77114C15.5586 7.8768 15.5646 8.06453 15.5108 8.19947C15.4449 8.36373 15.2832 8.46347 15.0617 8.46933C15.0378 8.46933 15.0139 8.46933 14.9959 8.46933C14.7145 9.07953 14.4691 9.76012 14.2416 10.5404H14.8941C14.9959 10.5404 15.0797 10.4583 15.0797 10.3585V9.76599C16.1453 9.27899 16.8876 8.22293 16.8816 6.99081C16.8816 5.30699 15.4808 3.93996 13.7627 3.93996L13.7747 3.9341Z" fill="#1F8E9F"/>
<path d="M7.51902 2.94844C7.45317 3.06579 7.38128 3.14793 7.30346 3.20073C7.22564 3.25353 7.12986 3.277 7.02212 3.277C6.9024 3.277 6.77669 3.23593 6.63302 3.14793C6.49528 3.05992 6.32767 2.96605 6.13612 2.86044C5.94456 2.75483 5.71707 2.66096 5.45965 2.57295C5.20223 2.48495 4.89692 2.44387 4.54971 2.44387C4.23243 2.44387 3.95705 2.47908 3.71759 2.55535C3.47813 2.63163 3.28058 2.73137 3.11895 2.8663C2.95731 3.00125 2.83758 3.15966 2.75976 3.34741C2.68194 3.53515 2.64003 3.73463 2.64003 3.95758C2.64003 4.2392 2.71785 4.47388 2.87949 4.6675C3.04112 4.86111 3.25663 5.01952 3.52004 5.1486C3.78344 5.27767 4.08875 5.40088 4.42998 5.50649C4.77121 5.61209 5.11842 5.72357 5.47162 5.84091C5.83081 5.95823 6.17802 6.09909 6.51324 6.25749C6.85451 6.41589 7.15381 6.61535 7.42318 6.85589C7.69261 7.09648 7.90213 7.38981 8.06375 7.74187C8.22537 8.09387 8.30319 8.51627 8.30319 9.015C8.30319 9.56066 8.20741 10.0652 8.01586 10.5404C7.82431 11.0157 7.54895 11.4264 7.18374 11.7784C6.81859 12.1304 6.37556 12.4062 5.84877 12.6115C5.32196 12.811 4.71733 12.9166 4.04086 12.9166C3.65174 12.9166 3.26262 12.8814 2.88547 12.8051C2.50833 12.7288 2.14315 12.6232 1.79593 12.4824C1.44873 12.3416 1.11947 12.1774 0.814157 11.9837C0.508849 11.7901 0.239458 11.573 0 11.3325L0.670486 10.2588C0.72436 10.1825 0.802185 10.118 0.891981 10.0652C0.981778 10.0124 1.07756 9.98892 1.17933 9.98892C1.32301 9.98892 1.47267 10.0476 1.64029 10.1591C1.80193 10.2705 1.99948 10.3996 2.22696 10.5404C2.45445 10.6812 2.71785 10.8044 3.02316 10.9218C3.32847 11.0332 3.68766 11.0919 4.1127 11.0919C4.76522 11.0919 5.26808 10.9394 5.62128 10.6402C5.98047 10.3351 6.15408 9.90679 6.15408 9.33766C6.15408 9.02086 6.07626 8.76273 5.91462 8.56321C5.75299 8.36374 5.53747 8.19361 5.27407 8.05867C5.01067 7.92374 4.70536 7.80641 4.36413 7.71248C4.0229 7.61861 3.68167 7.51301 3.32847 7.40741C2.97527 7.29595 2.63404 7.16101 2.29281 7.00848C1.95158 6.85589 1.65226 6.65055 1.38287 6.39829C1.11947 6.14602 0.903953 5.83505 0.742318 5.45955C0.580686 5.08406 0.502862 4.62056 0.502862 4.07492C0.502862 3.63489 0.59266 3.21246 0.772254 2.7959C0.951848 2.37934 1.20927 2.00971 1.55049 1.68703C1.89172 1.36434 2.31077 1.10619 2.80765 0.912574C3.30453 0.718956 3.87922 0.619217 4.51978 0.619217C5.24414 0.619217 5.91463 0.73069 6.52521 0.953641C7.13585 1.17659 7.6567 1.48754 8.08769 1.88651L7.51902 2.94258V2.94844Z" fill="#274796"/>
<path d="M21.8149 0.425598V12.7875H19.7197V0.425598H21.8149Z" fill="#274796"/>
<path d="M31.8243 4.25681L27.077 15.1402C27.0171 15.2869 26.9333 15.3925 26.8376 15.4688C26.7418 15.5451 26.5861 15.5803 26.3826 15.5803H24.8201L26.4485 12.1539L22.9224 4.25681H24.7663C24.9279 4.25681 25.0596 4.29787 25.1554 4.37414C25.2511 4.45042 25.317 4.53842 25.3649 4.63816L27.2147 9.06193C27.2746 9.21446 27.3285 9.36113 27.3704 9.51372C27.4123 9.66626 27.4542 9.81879 27.4961 9.97132C27.544 9.81879 27.5979 9.66039 27.6517 9.50786C27.6996 9.35526 27.7595 9.20273 27.8193 9.05606L29.5674 4.63816C29.6153 4.52669 29.6871 4.43868 29.7949 4.36241C29.8967 4.29201 30.0164 4.25681 30.1481 4.25681H31.8303H31.8243Z" fill="#274796"/>
<path d="M37.3017 11.0332C37.2598 11.0039 37.2119 10.9863 37.146 10.9863C37.0921 10.9863 37.0442 11.0039 36.9903 11.0332C36.9364 11.0626 36.8826 11.0978 36.8167 11.1271C36.7509 11.1623 36.6731 11.1917 36.5893 11.221C36.4995 11.2504 36.3917 11.268 36.26 11.268C36.0265 11.268 35.8469 11.1917 35.7152 11.045C35.5835 10.8924 35.5177 10.6871 35.5177 10.4231V5.79396H39.0198V4.32719H35.5177V1.64008H34.4282C34.3024 1.64008 34.2006 1.66941 34.1228 1.73395C34.045 1.79262 33.9911 1.88063 33.9612 1.9921L33.5182 4.31546L32.1174 4.55014V5.36566C32.1174 5.51234 32.1593 5.61795 32.2371 5.68835C32.3149 5.75876 32.4107 5.79396 32.5244 5.79396H33.4164V10.5639C33.4164 11.3032 33.62 11.8781 34.0211 12.3006C34.4282 12.7171 35.0088 12.9284 35.7631 12.9284C36.1882 12.9284 36.5952 12.8638 36.9963 12.7347C37.3914 12.6056 37.7446 12.4179 38.05 12.1715L37.4214 11.174C37.3735 11.1154 37.3316 11.0684 37.2957 11.0391L37.3017 11.0332Z" fill="#274796"/>
<path d="M41.9107 1.22353C41.8389 1.06512 41.7371 0.924306 41.6174 0.806967C41.4977 0.689621 41.354 0.595749 41.1864 0.525346C41.0187 0.454941 40.8452 0.419739 40.6536 0.419739C40.462 0.419739 40.3004 0.454941 40.1447 0.525346C39.9891 0.595749 39.8454 0.689621 39.7257 0.806967C39.606 0.924306 39.5102 1.06512 39.4444 1.22353C39.3725 1.38194 39.3366 1.55208 39.3366 1.73397C39.3366 1.91584 39.3725 2.08012 39.4444 2.23853C39.5162 2.39694 39.612 2.53189 39.7257 2.64922C39.8454 2.76657 39.9831 2.86044 40.1447 2.92498C40.3004 2.99538 40.474 3.03059 40.6536 3.03059C40.8332 3.03059 41.0187 2.99538 41.1864 2.92498C41.354 2.85458 41.4977 2.7607 41.6174 2.64922C41.7371 2.53775 41.8389 2.39694 41.9107 2.23853C41.9826 2.08012 42.0185 1.90998 42.0185 1.73397C42.0185 1.55208 41.9826 1.38194 41.9107 1.22353Z" fill="#274796"/>
<path d="M39.5705 5.79398V12.7934H41.6657V4.33308H39.5645L39.5705 5.79398Z" fill="#274796"/>
<path d="M50.0412 6.06388C49.9814 6.14015 49.9155 6.20468 49.8617 6.24575C49.8018 6.29268 49.718 6.31028 49.6043 6.31028C49.4905 6.31028 49.3947 6.28095 49.2929 6.21641C49.1912 6.15188 49.0714 6.08148 48.9278 5.99935C48.7841 5.91718 48.6164 5.84678 48.4249 5.78224C48.2273 5.7177 47.9879 5.68837 47.7005 5.68837C47.3354 5.68837 47.0121 5.75291 46.7307 5.88198C46.4554 6.01108 46.2219 6.19881 46.0363 6.44521C45.8507 6.69161 45.713 6.98501 45.6232 7.33114C45.5334 7.67733 45.4855 8.0704 45.4855 8.51046C45.4855 8.95046 45.5334 9.37292 45.6352 9.72492C45.737 10.0828 45.8746 10.3762 46.0663 10.6167C46.2578 10.8572 46.4793 11.0392 46.7427 11.1682C47.0061 11.2914 47.3114 11.356 47.6406 11.356C47.9699 11.356 48.2453 11.3149 48.4488 11.2328C48.6523 11.1506 48.832 11.0626 48.9697 10.9687C49.1133 10.869 49.2331 10.781 49.3408 10.7047C49.4426 10.6226 49.5624 10.5815 49.694 10.5815C49.8617 10.5815 49.9933 10.646 50.0772 10.7751L50.6818 11.5261C50.4483 11.7901 50.1969 12.0131 49.9275 12.195C49.6581 12.3768 49.3767 12.5176 49.0834 12.6291C48.7901 12.7347 48.4907 12.811 48.1854 12.858C47.8742 12.9049 47.5688 12.9225 47.2635 12.9225C46.7247 12.9225 46.2219 12.8228 45.743 12.6291C45.2701 12.4296 44.851 12.148 44.4978 11.7666C44.1386 11.3912 43.8572 10.9276 43.6537 10.382C43.4442 9.83638 43.3424 9.21446 43.3424 8.51632C43.3424 7.88853 43.4322 7.30767 43.6178 6.77381C43.8033 6.23988 44.0727 5.77638 44.426 5.38328C44.7791 4.99019 45.2222 4.6851 45.7489 4.46215C46.2758 4.2392 46.8804 4.12773 47.5628 4.12773C48.2453 4.12773 48.7841 4.22747 49.275 4.43282C49.7659 4.63817 50.2029 4.93152 50.598 5.31287L50.0472 6.06388H50.0412Z" fill="#274796"/>
<path d="M57.2962 5.91718C57.2423 6.00516 57.1825 6.06975 57.1166 6.10495C57.0568 6.14015 56.973 6.15775 56.8772 6.15775C56.7754 6.15775 56.6676 6.12842 56.5479 6.07562C56.4341 6.02276 56.2965 5.95822 56.1468 5.88784C55.9972 5.81744 55.8176 5.75877 55.626 5.7001C55.4284 5.6473 55.201 5.61796 54.9315 5.61796C54.5185 5.61796 54.1952 5.70596 53.9617 5.87611C53.7283 6.04628 53.6086 6.27508 53.6086 6.55082C53.6086 6.73268 53.6684 6.88522 53.7881 7.01434C53.9079 7.14341 54.0695 7.24901 54.2731 7.34288C54.4766 7.43674 54.7041 7.51888 54.9555 7.59514C55.2129 7.67141 55.4703 7.75354 55.7337 7.8416C55.9972 7.9296 56.2546 8.02934 56.512 8.14667C56.7694 8.25814 56.9969 8.4048 57.1944 8.5808C57.392 8.75686 57.5596 8.96219 57.6794 9.20859C57.7991 9.45499 57.8589 9.74839 57.8589 10.0887C57.8589 10.4994 57.7811 10.8748 57.6315 11.2269C57.4818 11.573 57.2603 11.8722 56.967 12.1246C56.6736 12.3768 56.3084 12.5763 55.8774 12.7171C55.4464 12.8579 54.9435 12.9284 54.3808 12.9284C54.0815 12.9284 53.7881 12.899 53.5008 12.8462C53.2135 12.7934 52.9381 12.723 52.6747 12.6232C52.4113 12.5294 52.1658 12.4179 51.9443 12.2888C51.7228 12.1598 51.5253 12.0248 51.3516 11.8722L51.8366 11.0919C51.8964 10.998 51.9742 10.9276 52.058 10.8748C52.1419 10.8279 52.2496 10.7986 52.3814 10.7986C52.513 10.7986 52.6328 10.8338 52.7525 10.9042C52.8662 10.9746 53.0039 11.0567 53.1536 11.1388C53.3033 11.221 53.4888 11.2973 53.6924 11.3736C53.8959 11.444 54.1593 11.4792 54.4766 11.4792C54.728 11.4792 54.9375 11.4498 55.1172 11.3912C55.2967 11.3325 55.4404 11.2562 55.5601 11.1623C55.6739 11.0684 55.7637 10.957 55.8176 10.8338C55.8715 10.7106 55.8954 10.5815 55.8954 10.4466C55.8954 10.2471 55.8355 10.0828 55.7158 9.95372C55.596 9.82465 55.4344 9.71319 55.2309 9.61932C55.0274 9.52545 54.7998 9.44326 54.5424 9.36699C54.285 9.29073 54.0216 9.20859 53.7522 9.12059C53.4828 9.03259 53.2194 8.92699 52.962 8.80966C52.7046 8.69233 52.4771 8.53974 52.2735 8.35787C52.07 8.176 51.9084 7.95307 51.7887 7.68314C51.669 7.41328 51.6091 7.09648 51.6091 6.72095C51.6091 6.36895 51.6809 6.04042 51.8186 5.72356C51.9563 5.40675 52.1658 5.13099 52.4412 4.89631C52.7166 4.66163 53.0578 4.47388 53.4709 4.33307C53.8839 4.19226 54.3569 4.12186 54.8956 4.12186C55.4943 4.12186 56.0391 4.2216 56.5359 4.41521C57.0268 4.60882 57.4399 4.86697 57.7692 5.17793L57.2962 5.91718Z" fill="#274796"/>
<path d="M67.8926 0.760025C68.7126 0.760025 69.4248 0.853898 70.0234 1.04164C70.622 1.22939 71.1191 1.49341 71.5085 1.8337C71.8973 2.17399 72.1905 2.57882 72.3761 3.04819C72.5678 3.51755 72.6634 4.03385 72.6634 4.59709C72.6634 5.16033 72.5618 5.71184 72.364 6.19882C72.1669 6.68576 71.8676 7.10235 71.4722 7.44848C71.0773 7.80054 70.5803 8.07041 69.9817 8.26401C69.3831 8.45761 68.6884 8.55734 67.8866 8.55734H66.1803V12.7934H63.8935V0.760025H67.8866H67.8926ZM67.8926 6.80896C68.3117 6.80896 68.6769 6.75616 68.9877 6.65642C69.2991 6.55669 69.5567 6.40416 69.7659 6.21642C69.9757 6.02863 70.1256 5.79398 70.2272 5.51822C70.3288 5.24247 70.3826 4.93738 70.3826 4.59709C70.3826 4.2568 70.3288 3.98692 70.2272 3.7229C70.1256 3.46475 69.9696 3.2418 69.7659 3.05992C69.5627 2.87804 69.3051 2.73723 68.9937 2.63749C68.6823 2.53775 68.3177 2.49081 67.8926 2.49081H66.1863V6.80896H67.8926Z" fill="#274796"/>
<path d="M73.6151 5.44781C74.6146 4.55015 75.8239 4.09839 77.2309 4.09839C77.7394 4.09839 78.1947 4.18053 78.5956 4.3448C78.9971 4.50908 79.3381 4.7379 79.6132 5.02538C79.8889 5.31874 80.1042 5.6649 80.2481 6.0697C80.3914 6.47456 80.4634 6.92042 80.4634 7.40155V12.7934H79.5116C79.3139 12.7934 79.1585 12.764 79.0509 12.7054C78.9427 12.6467 78.8592 12.5294 78.7933 12.3534L78.6077 11.7373C78.3864 11.9309 78.1705 12.101 77.9613 12.2478C77.7515 12.3944 77.5362 12.5176 77.3089 12.6174C77.0809 12.7171 76.8415 12.7934 76.5845 12.8462C76.3269 12.899 76.0397 12.9283 75.7283 12.9283C75.3631 12.9283 75.0221 12.8814 74.7107 12.7816C74.3993 12.6819 74.1296 12.5411 73.9023 12.3475C73.6749 12.1539 73.5014 11.9133 73.3756 11.6258C73.2499 11.3384 73.19 11.0039 73.19 10.6167C73.19 10.3996 73.2257 10.1825 73.2976 9.97133C73.3696 9.76013 73.4893 9.55479 73.6568 9.36113C73.8243 9.16753 74.0401 8.98567 74.3092 8.80967C74.5728 8.63947 74.9024 8.48694 75.2912 8.35787C75.6806 8.22881 76.1292 8.12907 76.6444 8.04694C77.1589 7.96481 77.7454 7.91787 78.41 7.90027V7.40155C78.41 6.83242 78.2842 6.41002 78.0387 6.13429C77.7938 5.85851 77.4286 5.72356 76.9612 5.72356C76.6202 5.72356 76.339 5.76463 76.1171 5.84091C75.8958 5.91718 75.6981 6.00516 75.5246 6.1049C75.3571 6.20469 75.2017 6.28682 75.0638 6.36895C74.926 6.44522 74.7706 6.48629 74.6025 6.48629C74.4531 6.48629 74.3334 6.45109 74.2318 6.37482C74.1296 6.29855 74.0462 6.21055 73.9863 6.11076L73.6151 5.45368V5.44781ZM78.422 9.14993C77.8174 9.17927 77.3089 9.2262 76.8953 9.30247C76.4823 9.37873 76.1534 9.4726 75.9019 9.58999C75.6503 9.70733 75.4768 9.84226 75.3692 9.99479C75.2615 10.1473 75.2071 10.3175 75.2071 10.5053C75.2071 10.8631 75.3154 11.1213 75.5367 11.2797C75.7519 11.4322 76.0397 11.5144 76.3928 11.5144C76.824 11.5144 77.1946 11.4381 77.506 11.2856C77.8174 11.133 78.1288 10.9042 78.4281 10.5933V9.1558L78.422 9.14993Z" fill="#274796"/>
<path d="M84.4147 5.7353C84.6844 5.22487 85.0073 4.8259 85.3846 4.53255C85.7559 4.23919 86.1991 4.09839 86.7076 4.09839C87.1091 4.09839 87.432 4.18639 87.6774 4.35654L87.5396 5.89371C87.51 5.99343 87.4682 6.06383 87.4144 6.1049C87.36 6.14602 87.2887 6.16949 87.1986 6.16949C87.1151 6.16949 86.9894 6.15775 86.8213 6.12842C86.6538 6.09903 86.4923 6.0873 86.3309 6.0873C86.0969 6.0873 85.8937 6.12255 85.7081 6.18709C85.5285 6.25162 85.3671 6.35136 85.2171 6.47456C85.0732 6.59776 84.9474 6.75029 84.8338 6.92629C84.7261 7.10235 84.6185 7.30768 84.523 7.53648V12.7934H82.4273V4.25679H83.6607C83.876 4.25679 84.026 4.292 84.1094 4.36827C84.1934 4.44455 84.2533 4.57949 84.2775 4.7731L84.4027 5.74117L84.4147 5.7353Z" fill="#274796"/>
<path d="M91.6712 12.9284C90.9105 12.9284 90.33 12.7171 89.9292 12.3006C89.5216 11.884 89.3245 11.3032 89.3245 10.5639V5.79398H88.432C88.3184 5.79398 88.2228 5.75878 88.1448 5.68838C88.0668 5.61797 88.0251 5.5065 88.0251 5.36569V4.55017L89.4261 4.32722L89.8687 1.99799C89.8989 1.88652 89.9527 1.79851 90.0307 1.73984C90.1087 1.68117 90.2103 1.64597 90.3361 1.64597H91.4257V4.33308H94.5983V5.79985H91.4257V10.429C91.4257 10.693 91.4916 10.9042 91.6228 11.0509C91.7546 11.1976 91.9402 11.2738 92.1676 11.2738C92.2994 11.2738 92.407 11.2562 92.4971 11.2269C92.5866 11.1976 92.6586 11.1624 92.7245 11.133C92.7904 11.0978 92.8502 11.0685 92.898 11.0392C92.9518 11.0098 93.0002 10.9922 93.054 10.9922C93.1139 10.9922 93.1677 11.0098 93.2094 11.0392C93.2511 11.0685 93.2934 11.1154 93.3352 11.1741L93.964 12.1715C93.6586 12.4238 93.3049 12.6115 92.9101 12.7347C92.5153 12.8638 92.1017 12.9284 91.6772 12.9284H91.6712Z" fill="#274796"/>
<path d="M97.1838 5.30113C97.2019 5.26593 97.2315 5.21899 97.2678 5.16619C97.3331 5.07818 97.4293 4.96084 97.5967 4.82003C97.8483 4.62055 98.0877 4.50321 98.2195 4.44454C98.4348 4.3448 98.6682 4.26266 98.9197 4.20399C99.1713 4.14532 99.4409 4.11598 99.7342 4.11598C100.207 4.11598 100.632 4.19225 100.997 4.35067C101.363 4.50907 101.673 4.73202 101.919 5.01364C102.164 5.30113 102.35 5.64142 102.482 6.03449C102.607 6.43349 102.673 6.86762 102.673 7.34288V12.7758H100.578V7.34288C100.578 6.82069 100.459 6.41589 100.213 6.13423C99.9676 5.84677 99.5963 5.70596 99.0993 5.70596C98.7341 5.70596 98.3991 5.78809 98.0817 5.94649C97.7642 6.10489 97.4649 6.32789 97.1838 6.60362V12.7758H95.0886V4.33306C95.0886 4.33306 95.8009 4.33306 96.3995 4.33306C96.8367 4.33306 97.1898 4.67922 97.1898 5.10751V5.307L97.1838 5.30113Z" fill="#274796"/>
<path d="M106.277 8.78033C106.313 9.22033 106.391 9.59585 106.517 9.91852C106.642 10.2353 106.804 10.4994 107.008 10.7106C107.211 10.9159 107.45 11.0743 107.732 11.174C108.013 11.2738 108.324 11.3266 108.659 11.3266C108.995 11.3266 109.294 11.2856 109.54 11.2093C109.785 11.133 110.001 11.045 110.186 10.9511C110.372 10.8572 110.533 10.7692 110.671 10.693C110.809 10.6167 110.946 10.5756 111.072 10.5756C111.246 10.5756 111.377 10.6402 111.461 10.7692L112.066 11.5202C111.833 11.7842 111.575 12.0072 111.282 12.1891C110.995 12.371 110.689 12.5118 110.378 12.6232C110.066 12.7288 109.743 12.8051 109.42 12.852C109.097 12.899 108.779 12.9166 108.474 12.9166C107.869 12.9166 107.307 12.8168 106.786 12.6232C106.265 12.4238 105.81 12.1363 105.427 11.749C105.044 11.3618 104.738 10.8866 104.517 10.3175C104.296 9.74839 104.188 9.09126 104.188 8.34027C104.188 7.75947 104.284 7.20794 104.475 6.69748C104.667 6.18708 104.942 5.7353 105.301 5.35981C105.66 4.97845 106.098 4.67923 106.618 4.45628C107.139 4.23333 107.72 4.12186 108.372 4.12186C108.923 4.12186 109.426 4.20986 109.893 4.38001C110.36 4.55015 110.755 4.80244 111.09 5.13099C111.425 5.45955 111.689 5.86438 111.874 6.34548C112.066 6.82655 112.162 7.37221 112.162 7.98827C112.162 8.2992 112.126 8.5104 112.06 8.61606C111.994 8.72166 111.862 8.78033 111.671 8.78033H106.277ZM110.276 7.54234C110.276 7.27834 110.24 7.02608 110.162 6.79135C110.085 6.55668 109.971 6.35135 109.821 6.16948C109.672 5.98756 109.474 5.85264 109.241 5.74704C109.007 5.64729 108.731 5.59449 108.42 5.59449C107.815 5.59449 107.336 5.76464 106.989 6.10495C106.642 6.44522 106.421 6.92048 106.325 7.54234H110.282H110.276Z" fill="#274796"/>
<path d="M115.707 5.7353C115.976 5.22487 116.299 4.8259 116.677 4.53255C117.048 4.23919 117.491 4.09839 117.999 4.09839C118.401 4.09839 118.724 4.18639 118.969 4.35654L118.831 5.89371C118.802 5.99343 118.76 6.06383 118.706 6.1049C118.652 6.14602 118.581 6.16949 118.49 6.16949C118.406 6.16949 118.281 6.15775 118.113 6.12842C117.946 6.09903 117.784 6.0873 117.622 6.0873C117.389 6.0873 117.186 6.12255 117 6.18709C116.814 6.25162 116.658 6.35136 116.509 6.47456C116.365 6.59776 116.239 6.75029 116.126 6.92629C116.018 7.10235 115.91 7.30768 115.814 7.53648V12.7934H113.719V4.25679H114.953C115.168 4.25679 115.318 4.292 115.401 4.36827C115.485 4.44455 115.545 4.57949 115.569 4.7731L115.695 5.74117L115.707 5.7353Z" fill="#274796"/>
<path d="M125.35 5.91718C125.296 6.00516 125.237 6.06975 125.171 6.10495C125.111 6.14015 125.027 6.15775 124.931 6.15775C124.83 6.15775 124.721 6.12842 124.602 6.07562C124.488 6.02276 124.35 5.95822 124.201 5.88784C124.051 5.81744 123.871 5.75877 123.68 5.7001C123.482 5.6473 123.255 5.61796 122.985 5.61796C122.572 5.61796 122.249 5.70596 122.016 5.87611C121.782 6.04628 121.662 6.27508 121.662 6.55082C121.662 6.73268 121.722 6.88522 121.842 7.01434C121.962 7.14341 122.123 7.24901 122.327 7.34288C122.531 7.43674 122.758 7.51888 123.01 7.59514C123.267 7.67141 123.524 7.75354 123.788 7.8416C124.051 7.9296 124.308 8.02934 124.566 8.14667C124.824 8.25814 125.051 8.4048 125.249 8.5808C125.446 8.75686 125.614 8.96219 125.734 9.20859C125.853 9.45499 125.913 9.74839 125.913 10.0887C125.913 10.4994 125.835 10.8748 125.685 11.2269C125.536 11.573 125.314 11.8722 125.021 12.1246C124.727 12.3768 124.362 12.5763 123.931 12.7171C123.501 12.8579 122.998 12.9284 122.435 12.9284C122.135 12.9284 121.842 12.899 121.555 12.8462C121.268 12.7934 120.992 12.723 120.729 12.6232C120.465 12.5294 120.22 12.4179 119.998 12.2888C119.777 12.1598 119.579 12.0248 119.406 11.8722L119.89 11.0919C119.95 10.998 120.028 10.9276 120.112 10.8748C120.196 10.8279 120.304 10.7986 120.435 10.7986C120.567 10.7986 120.687 10.8338 120.806 10.9042C120.92 10.9746 121.058 11.0567 121.208 11.1388C121.357 11.221 121.543 11.2973 121.747 11.3736C121.95 11.444 122.213 11.4792 122.531 11.4792C122.782 11.4792 122.991 11.4498 123.171 11.3912C123.351 11.3325 123.495 11.2562 123.614 11.1623C123.728 11.0684 123.817 10.957 123.871 10.8338C123.926 10.7106 123.949 10.5815 123.949 10.4466C123.949 10.2471 123.889 10.0828 123.77 9.95372C123.65 9.82465 123.489 9.71319 123.285 9.61932C123.082 9.52545 122.854 9.44326 122.597 9.36699C122.339 9.29073 122.075 9.20859 121.806 9.12059C121.537 9.03259 121.274 8.92699 121.016 8.80966C120.759 8.69233 120.531 8.53974 120.327 8.35787C120.124 8.176 119.962 7.95307 119.842 7.68314C119.723 7.41328 119.663 7.09648 119.663 6.72095C119.663 6.36895 119.735 6.04042 119.873 5.72356C120.016 5.40675 120.22 5.13099 120.495 4.89631C120.771 4.66163 121.112 4.47388 121.525 4.33307C121.938 4.19226 122.411 4.12186 122.95 4.12186C123.548 4.12186 124.093 4.2216 124.59 4.41521C125.081 4.60882 125.494 4.86697 125.823 5.17793L125.35 5.91718Z" fill="#274796"/>
<path d="M41.6717 4.33308H39.5645V12.7934H41.6717V4.33308Z" fill="#274796"/>
<path d="M126.482 4.12186V2.48495H125.859V2.26787H127.362V2.48495H126.734V4.12186H126.482Z" fill="#274796"/>
<path d="M127.607 4.12186V2.26787H127.985L128.433 3.58209C128.476 3.7053 128.505 3.7933 128.523 3.85784C128.547 3.78744 128.577 3.69356 128.625 3.55862L129.08 2.26787H129.415V4.12186H129.176V2.56709L128.625 4.12186H128.398L127.853 2.54362V4.12186H127.613H127.607Z" fill="#274796"/>
</g>
<defs>
<clipPath id="clip0_4_47">
<rect width="130" height="16" fill="white"/>
</clipPath>
</defs>
</svg>
