<svg xmlns="http://www.w3.org/2000/svg" width="215" height="27" viewBox="0 0 215 27" fill="none"><script xmlns="" id="youtube-hd-fjdmkanbdloodhegphphhklnjfngoffa">var ythdlog = () =&gt; {};;var ythderror = () =&gt; {};</script>
<path d="M24.7122 18.8661H20.8905C20.742 18.8661 20.6133 19.0146 20.6133 19.183C20.6133 19.3612 20.742 19.4998 20.8905 19.4998H24.7122C24.8607 19.4998 24.9894 19.3513 24.9894 19.1731C24.9894 18.9948 24.8706 18.8562 24.7122 18.8562V18.8661Z" fill="#1F8E9F"/>
<path d="M24.7122 19.7473H20.8905C20.742 19.7473 20.6133 19.8958 20.6133 20.074C20.6133 20.2522 20.742 20.3909 20.8905 20.3909H21.2964L21.7123 21.2225C21.7123 21.2225 21.8608 21.4799 22.0093 21.5195C22.336 21.6581 23.2865 21.6779 23.6528 21.5195C23.6528 21.5195 23.831 21.47 23.9696 21.2027C24.0785 20.9948 24.3062 20.579 24.4052 20.381H24.7122C24.8607 20.381 24.9894 20.2423 24.9894 20.0641C24.9894 19.8958 24.8607 19.7473 24.7122 19.7473Z" fill="#1F8E9F"/>
<path d="M24.7122 17.985H20.8905C20.742 17.985 20.6133 18.1335 20.6133 18.3117C20.6133 18.49 20.742 18.6286 20.8905 18.6286H24.7122C24.8607 18.6286 24.9894 18.48 24.9894 18.3018C24.9894 18.1236 24.8607 17.985 24.7122 17.985Z" fill="#1F8E9F"/>
<path d="M29.8807 14.9653C29.5539 14.8069 29.2371 14.6484 28.9104 14.4801C28.7223 14.391 28.4649 14.4207 28.356 14.6286C28.2668 14.8168 28.2966 15.0742 28.5045 15.1831C28.8312 15.3415 29.148 15.4999 29.4747 15.6682C29.6529 15.7771 29.9302 15.7177 30.0292 15.5197C30.0688 15.4504 30.0886 15.3712 30.0787 15.292C30.0787 15.1534 30.0094 15.0346 29.8807 14.9653Z" fill="#1F8E9F"/>
<path d="M17.2265 14.6287C17.1176 14.4208 16.8602 14.3911 16.6721 14.4901C16.3453 14.6485 16.0285 14.8168 15.7117 14.9752C15.583 15.0445 15.5236 15.1633 15.5137 15.3019C15.5137 15.3811 15.5236 15.4702 15.5632 15.5395C15.6622 15.7375 15.9394 15.7871 16.1176 15.6781C16.4443 15.5197 16.7612 15.3514 17.0879 15.193C17.2958 15.094 17.3255 14.8267 17.2265 14.6386V14.6287Z" fill="#1F8E9F"/>
<path d="M30.1874 9.86643C29.831 9.93573 29.4844 10.0149 29.128 10.0842C29.029 10.104 28.9498 10.1635 28.9003 10.2427C28.8706 10.2823 28.8607 10.3219 28.8508 10.3615C28.831 10.4308 28.831 10.51 28.8508 10.5793C28.8508 10.5793 28.8508 10.5793 28.8508 10.5892C28.8904 10.7872 29.0389 10.8763 29.1874 10.8763C29.2369 10.8763 29.2864 10.8763 29.3458 10.8763C29.6923 10.7971 30.0488 10.7179 30.3953 10.6387C30.9101 10.5199 30.6923 9.74762 30.1874 9.85653V9.86643Z" fill="#1F8E9F"/>
<path d="M16.7425 10.5397C16.7821 10.3516 16.693 10.1536 16.4554 10.104C16.1088 10.0248 15.7524 9.94564 15.4059 9.86643C15.198 9.81693 14.9604 9.92584 14.9109 10.1536C14.9109 10.1536 14.9109 10.1536 14.9109 10.1635C14.8713 10.3714 14.9703 10.609 15.198 10.6585C15.5544 10.7278 15.9009 10.807 16.2574 10.8763C16.5247 10.9357 16.7128 10.7377 16.7524 10.5298L16.7425 10.5397Z" fill="#1F8E9F"/>
<path d="M27.8804 5.63884C27.722 5.51014 27.4547 5.46063 27.3062 5.63884C27.0785 5.91606 26.8607 6.20318 26.6329 6.4804C26.4943 6.64871 26.4646 6.88633 26.6329 7.05464C26.6329 7.05464 26.6527 7.07444 26.6626 7.08434C26.8112 7.20315 27.0785 7.21305 27.2072 7.05464C27.4349 6.77742 27.6626 6.4903 27.8903 6.21308C28.019 6.05467 28.0685 5.78736 27.8903 5.63884H27.8804Z" fill="#1F8E9F"/>
<path d="M18.9402 6.48039C18.7125 6.20317 18.4947 5.91605 18.2669 5.63884C18.1184 5.45072 17.8511 5.52003 17.6927 5.63884C17.5046 5.78735 17.5739 6.05466 17.6927 6.21308C17.9204 6.49029 18.1481 6.76751 18.3758 7.05463C18.4451 7.14374 18.5739 7.18334 18.6828 7.17344C18.7818 7.17344 18.8808 7.12394 18.9402 7.05463C19.0095 6.98533 19.0392 6.90612 19.0491 6.82692C19.059 6.70811 19.0194 6.5794 18.9402 6.48039Z" fill="#1F8E9F"/>
<path d="M22.7907 3.82703C22.5729 3.82703 22.3848 4.00524 22.3848 4.23295C22.3848 4.58938 22.3848 4.9557 22.3848 5.31213C22.3848 5.52994 22.563 5.71806 22.7907 5.71806C22.9095 5.71806 22.9986 5.67845 23.058 5.61905C23.1372 5.54975 23.1966 5.45074 23.1966 5.32203C23.1966 4.9656 23.1966 4.59928 23.1966 4.24285C23.1966 4.02504 23.0184 3.83693 22.8006 3.83693L22.7907 3.82703Z" fill="#1F8E9F"/>
<path d="M24.1086 12.4307C24.1482 12.3515 24.1581 12.2921 24.1284 12.2525C24.1086 12.2129 24.0788 12.1931 24.059 12.1931C23.9996 12.1931 23.9204 12.2723 23.8907 12.3416C23.8313 12.4505 23.8412 12.5891 23.861 12.698C23.9798 12.6089 24.0689 12.5198 24.1185 12.4208L24.1086 12.4307Z" fill="#1F8E9F"/>
<path d="M22.4645 12.2822C22.4942 12.2228 22.5041 12.1139 22.4645 12.0743C22.4645 12.0743 22.4546 12.0644 22.4348 12.0644C22.4249 12.0644 22.4051 12.0644 22.3754 12.0842C22.3061 12.1139 22.2467 12.1733 22.2071 12.2624C22.1378 12.4109 22.1279 12.5594 22.1774 12.6782C22.1774 12.6683 22.1972 12.6584 22.2071 12.6386C22.2962 12.5297 22.3952 12.4109 22.4546 12.2921L22.4645 12.2822Z" fill="#1F8E9F"/>
<path d="M21.2461 13.9851C21.7609 15.1039 22.2164 16.3415 22.6223 17.7771H23.2064C23.5827 16.4207 23.9985 15.2524 24.4737 14.1831C24.0975 14.0049 23.8005 13.6782 23.6322 13.2426C23.3648 13.3515 23.0975 13.3911 22.8203 13.3614C22.5827 13.3416 22.3748 13.2822 22.2164 13.1931C22.0579 13.3713 21.7015 13.7673 21.256 13.9851H21.2461Z" fill="#1F8E9F"/>
<path d="M20.3764 13.2822C20.3764 13.2822 20.3566 13.2822 20.3467 13.2822C20.2972 13.2822 20.2378 13.302 20.2279 13.3416C20.2081 13.4208 20.2477 13.5 20.2873 13.5495C20.3764 13.6683 20.5546 13.7574 20.6933 13.7574C20.7032 13.7574 20.7131 13.7574 20.723 13.7574C20.6933 13.698 20.6636 13.6287 20.624 13.5693C20.5546 13.4406 20.4754 13.302 20.3566 13.2822H20.3764Z" fill="#1F8E9F"/>
<path d="M25.3069 13.3911C25.3069 13.3911 25.2574 13.4109 25.1683 13.5495C25.1089 13.6683 25.0594 13.7871 25 13.9059C25.1287 13.896 25.2277 13.8465 25.297 13.7772C25.3564 13.7178 25.3762 13.6386 25.3663 13.5396C25.3663 13.4307 25.3267 13.3911 25.3168 13.3812L25.3069 13.3911Z" fill="#1F8E9F"/>
<path d="M22.7812 6.63879C19.9397 6.63879 17.6328 8.95555 17.6328 11.797C17.6328 13.8762 18.8605 15.6583 20.6327 16.4702V17.4701C20.6327 17.6385 20.7713 17.7771 20.9396 17.7771H22.2267C21.8307 16.3811 21.3951 15.1732 20.8901 14.094C20.603 14.1534 20.3456 14.0841 20.1278 13.8861C19.9793 13.7574 19.8407 13.5297 19.8605 13.3119C19.8704 13.1831 19.9397 13.0742 20.0585 12.995C20.1476 12.9356 20.2367 12.9158 20.3258 12.9158C20.6129 12.9158 20.8406 13.1732 20.9495 13.3911C20.9891 13.4703 21.0287 13.5594 21.0684 13.6386C21.3654 13.5 21.6624 13.2525 21.9099 12.9554C21.8406 12.8564 21.7911 12.7376 21.7812 12.6188C21.7515 12.401 21.8604 12.0743 22.0287 11.8862C22.2069 11.6782 22.4445 11.6386 22.6525 11.7871C22.7713 11.8664 22.8307 11.9753 22.8505 12.0941C22.8901 12.3713 22.6426 12.6683 22.4643 12.8861C22.4643 12.8861 22.4445 12.9059 22.4445 12.9158C22.494 12.9356 22.5535 12.9554 22.603 12.9653C22.9099 13.0247 23.1871 13.0247 23.395 12.9455C23.4346 12.9356 23.4742 12.9158 23.5039 12.896C23.4841 12.8168 23.4742 12.7475 23.4742 12.6683C23.4445 12.3515 23.5336 12.1139 23.7514 11.9357C23.8405 11.8664 23.9494 11.8268 24.0584 11.8268C24.1673 11.8268 24.2564 11.8664 24.3257 11.9357C24.4445 12.0644 24.5039 12.203 24.4841 12.3614C24.4544 12.6683 24.1673 12.9059 24.0485 12.995C24.0089 13.0247 23.9792 13.0445 23.9395 13.0643C24.0287 13.3218 24.2267 13.7079 24.6029 13.8564C24.6821 13.698 24.7514 13.5396 24.8306 13.3911C24.8306 13.3812 24.8405 13.3713 24.8504 13.3614C24.9197 13.2624 25.0979 13.0247 25.3058 13.0247C25.385 13.0247 25.4643 13.0544 25.5237 13.1138C25.7316 13.2921 25.7415 13.6089 25.6524 13.8366C25.5435 14.1138 25.2761 14.2821 24.9098 14.292C24.8702 14.292 24.8306 14.292 24.8009 14.292C24.3356 15.3217 23.9296 16.4702 23.5534 17.787H24.6326C24.8009 17.787 24.9395 17.6484 24.9395 17.48V16.4801C26.7018 15.6583 27.9295 13.8762 27.9196 11.797C27.9196 8.95555 25.6029 6.64869 22.7614 6.64869L22.7812 6.63879Z" fill="#1F8E9F"/>
<path d="M12.4353 4.97549C12.3264 5.17351 12.2075 5.31212 12.0788 5.40122C11.9501 5.49033 11.7917 5.52993 11.6135 5.52993C11.4155 5.52993 11.2076 5.46063 10.97 5.31212C10.7422 5.16361 10.465 5.0052 10.1482 4.82698C9.83138 4.64877 9.45515 4.49036 9.02942 4.34185C8.60369 4.19334 8.09876 4.12403 7.52452 4.12403C6.99978 4.12403 6.54435 4.18344 6.14832 4.31215C5.7523 4.44086 5.42557 4.60917 5.15826 4.83688C4.89094 5.0646 4.69292 5.33192 4.56422 5.64874C4.43551 5.96556 4.3662 6.30218 4.3662 6.67841C4.3662 7.15364 4.49491 7.54967 4.76223 7.87639C5.02955 8.20312 5.38597 8.47043 5.8216 8.68825C6.25723 8.90606 6.76217 9.11398 7.32651 9.29219C7.89084 9.4704 8.46508 9.65852 9.04922 9.85653C9.64327 10.0545 10.2175 10.2922 10.7719 10.5595C11.3363 10.8268 11.8313 11.1634 12.2768 11.5693C12.7224 11.9753 13.0689 12.4703 13.3362 13.0644C13.6035 13.6584 13.7322 14.3712 13.7322 15.2128C13.7322 16.1336 13.5738 16.985 13.257 17.787C12.9402 18.5889 12.4848 19.282 11.8808 19.876C11.2769 20.4701 10.5442 20.9354 9.67297 21.2819C8.80171 21.6185 7.80174 21.7968 6.68296 21.7968C6.03942 21.7968 5.39587 21.7374 4.77213 21.6086C4.14839 21.4799 3.54444 21.3017 2.9702 21.0641C2.39597 20.8265 1.85143 20.5493 1.34649 20.2225C0.841558 19.8958 0.396027 19.5295 0 19.1236L1.10888 17.3117C1.19798 17.183 1.32669 17.0741 1.4752 16.985C1.62371 16.8959 1.78212 16.8563 1.95043 16.8563C2.18805 16.8563 2.43557 16.9553 2.71279 17.1434C2.98011 17.3315 3.30683 17.5494 3.68305 17.787C4.05928 18.0246 4.49491 18.2325 4.99985 18.4305C5.50478 18.6186 6.09882 18.7176 6.80177 18.7176C7.88094 18.7176 8.7126 18.4602 9.29674 17.9553C9.89078 17.4405 10.1779 16.7177 10.1779 15.7573C10.1779 15.2227 10.0492 14.7871 9.78187 14.4504C9.51456 14.1138 9.15813 13.8267 8.7225 13.599C8.28687 13.3713 7.78194 13.1733 7.2176 13.0148C6.65326 12.8564 6.08892 12.6782 5.50478 12.5C4.92064 12.3119 4.3563 12.0842 3.79196 11.8268C3.22762 11.5693 2.73259 11.2228 2.28706 10.7971C1.85143 10.3714 1.495 9.84663 1.22768 9.21299C0.960366 8.57934 0.831657 7.79719 0.831657 6.87642C0.831657 6.13387 0.980168 5.42102 1.27719 4.71808C1.57421 4.01513 1.99994 3.39138 2.56428 2.84685C3.12862 2.30231 3.82166 1.86668 4.64342 1.53996C5.46518 1.21323 6.41564 1.04492 7.47502 1.04492C8.673 1.04492 9.78188 1.23303 10.7917 1.60926C11.8016 1.98549 12.663 2.51022 13.3758 3.18347L12.4353 4.96559V4.97549Z" fill="#274796"/>
<path d="M36.0785 0.718201V21.5789H32.6133V0.718201H36.0785Z" fill="#274796"/>
<path d="M52.6325 7.18335L44.7812 25.5491C44.6822 25.7966 44.5436 25.9748 44.3852 26.1036C44.2268 26.2323 43.9694 26.2917 43.6328 26.2917H41.0487L43.7417 20.5097L37.9102 7.18335H40.9596C41.2269 7.18335 41.4447 7.25265 41.6031 7.38136C41.7615 7.51007 41.8704 7.65858 41.9496 7.82689L45.0089 15.292C45.108 15.5494 45.1971 15.7969 45.2664 16.0544C45.3357 16.3118 45.405 16.5692 45.4743 16.8266C45.5535 16.5692 45.6426 16.3019 45.7317 16.0445C45.8109 15.787 45.9099 15.5296 46.0089 15.2821L48.8999 7.82689C48.9791 7.63878 49.0979 7.49027 49.2761 7.36156C49.4445 7.24275 49.6425 7.18335 49.8603 7.18335H52.6424H52.6325Z" fill="#274796"/>
<path d="M61.6912 18.6186C61.6219 18.5691 61.5427 18.5394 61.4338 18.5394C61.3447 18.5394 61.2654 18.5691 61.1763 18.6186C61.0872 18.6681 60.9981 18.7275 60.8892 18.777C60.7803 18.8364 60.6516 18.886 60.513 18.9355C60.3645 18.985 60.1863 19.0147 59.9685 19.0147C59.5823 19.0147 59.2853 18.886 59.0675 18.6384C58.8497 18.381 58.7408 18.0345 58.7408 17.589V9.77732H64.5327V7.30215H58.7408V2.76764H56.9389C56.7309 2.76764 56.5626 2.81714 56.4339 2.92605C56.3052 3.02506 56.2161 3.17357 56.1666 3.36168L55.4339 7.28235L53.1172 7.67838V9.05457C53.1172 9.30209 53.1865 9.4803 53.3152 9.59911C53.4439 9.71792 53.6023 9.77732 53.7904 9.77732H55.2656V17.8266C55.2656 19.0741 55.6023 20.0443 56.2656 20.7572C56.9389 21.4601 57.8992 21.8166 59.1467 21.8166C59.8497 21.8166 60.5229 21.7076 61.1862 21.4898C61.8397 21.272 62.4238 20.9552 62.9288 20.5394L61.8892 18.8562C61.81 18.7572 61.7407 18.678 61.6813 18.6285L61.6912 18.6186Z" fill="#274796"/>
<path d="M69.3139 2.06471C69.1951 1.79739 69.0268 1.55977 68.8288 1.36176C68.6308 1.16374 68.3932 1.00533 68.116 0.886525C67.8387 0.767717 67.5516 0.708313 67.2348 0.708313C66.918 0.708313 66.6507 0.767717 66.3932 0.886525C66.1358 1.00533 65.8982 1.16374 65.7002 1.36176C65.5022 1.55977 65.3438 1.79739 65.2349 2.06471C65.116 2.33202 65.0566 2.61914 65.0566 2.92607C65.0566 3.23299 65.116 3.51021 65.2349 3.77752C65.3537 4.04484 65.5121 4.27256 65.7002 4.47057C65.8982 4.66859 66.1259 4.827 66.3932 4.9359C66.6507 5.05471 66.9378 5.11412 67.2348 5.11412C67.5318 5.11412 67.8387 5.05471 68.116 4.9359C68.3932 4.8171 68.6308 4.65869 68.8288 4.47057C69.0268 4.28246 69.1951 4.04484 69.3139 3.77752C69.4327 3.51021 69.4921 3.22309 69.4921 2.92607C69.4921 2.61914 69.4327 2.33202 69.3139 2.06471Z" fill="#274796"/>
<path d="M65.4435 9.77734V21.5889H68.9087V7.31207H65.4336L65.4435 9.77734Z" fill="#274796"/>
<path d="M82.7605 10.2328C82.6615 10.3615 82.5526 10.4704 82.4635 10.5397C82.3645 10.6189 82.2259 10.6486 82.0378 10.6486C81.8496 10.6486 81.6912 10.5991 81.5229 10.4902C81.3546 10.3813 81.1566 10.2625 80.919 10.1239C80.6814 9.98525 80.4041 9.86645 80.0873 9.75754C79.7606 9.64863 79.3646 9.59913 78.8893 9.59913C78.2854 9.59913 77.7508 9.70804 77.2854 9.92585C76.83 10.1437 76.4439 10.4605 76.1369 10.8763C75.83 11.2921 75.6023 11.7872 75.4538 12.3713C75.3053 12.9555 75.2261 13.6188 75.2261 14.3614C75.2261 15.1039 75.3053 15.8168 75.4736 16.4108C75.6419 17.0147 75.8696 17.5098 76.1865 17.9157C76.5033 18.3216 76.8696 18.6286 77.3052 18.8464C77.7409 19.0543 78.2458 19.1632 78.7903 19.1632C79.3349 19.1632 79.7903 19.0939 80.1269 18.9553C80.4635 18.8167 80.7606 18.6682 80.9883 18.5097C81.2259 18.3414 81.4239 18.1929 81.6021 18.0642C81.7704 17.9256 81.9685 17.8563 82.1863 17.8563C82.4635 17.8563 82.6813 17.9652 82.8199 18.183L83.8199 19.4503C83.4338 19.8958 83.0179 20.2721 82.5724 20.579C82.1269 20.8859 81.6615 21.1235 81.1764 21.3116C80.6913 21.4898 80.1962 21.6186 79.6913 21.6978C79.1765 21.777 78.6715 21.8067 78.1666 21.8067C77.2755 21.8067 76.4439 21.6384 75.6518 21.3116C74.8697 20.975 74.1766 20.4998 73.5925 19.8562C72.9984 19.2226 72.5331 18.4404 72.1965 17.5197C71.85 16.5989 71.6816 15.5494 71.6816 14.3713C71.6816 13.3119 71.8301 12.3317 72.1371 11.4308C72.444 10.5298 72.8895 9.74764 73.4737 9.08429C74.0578 8.42095 74.7905 7.90611 75.6617 7.52988C76.533 7.15366 77.5329 6.96555 78.6616 6.96555C79.7903 6.96555 80.6814 7.13386 81.4932 7.48038C82.3051 7.82691 83.0278 8.32194 83.6813 8.96548L82.7704 10.2328H82.7605Z" fill="#274796"/>
<path d="M94.7591 9.98524C94.67 10.1337 94.571 10.2427 94.4621 10.3021C94.3631 10.3615 94.2245 10.3912 94.0661 10.3912C93.8978 10.3912 93.7195 10.3417 93.5215 10.2526C93.3334 10.1634 93.1057 10.0545 92.8582 9.93573C92.6107 9.81692 92.3137 9.71792 91.9968 9.61891C91.6701 9.52981 91.2939 9.4803 90.8483 9.4803C90.1652 9.4803 89.6306 9.62881 89.2444 9.91593C88.8583 10.2031 88.6603 10.5892 88.6603 11.0545C88.6603 11.3614 88.7593 11.6188 88.9573 11.8367C89.1553 12.0545 89.4226 12.2327 89.7593 12.3911C90.0959 12.5495 90.4721 12.6881 90.8879 12.8168C91.3137 12.9455 91.7394 13.0841 92.175 13.2327C92.6107 13.3812 93.0364 13.5495 93.4621 13.7475C93.8879 13.9356 94.2641 14.1831 94.5908 14.4801C94.9175 14.7772 95.1947 15.1237 95.3928 15.5395C95.5908 15.9553 95.6898 16.4504 95.6898 17.0246C95.6898 17.7177 95.5611 18.3513 95.3136 18.9454C95.066 19.5295 94.6997 20.0344 94.2146 20.4602C93.7294 20.8859 93.1255 21.2225 92.4127 21.4601C91.6998 21.6977 90.8681 21.8166 89.9375 21.8166C89.4425 21.8166 88.9573 21.7671 88.4821 21.6779C88.0069 21.5888 87.5514 21.47 87.1158 21.3017C86.6802 21.1433 86.2742 20.9552 85.9079 20.7374C85.5416 20.5196 85.2149 20.2918 84.9277 20.0344L85.7297 18.7176C85.8287 18.5592 85.9574 18.4404 86.096 18.3513C86.2346 18.2721 86.4128 18.2226 86.6307 18.2226C86.8485 18.2226 87.0465 18.282 87.2445 18.4008C87.4326 18.5196 87.6603 18.6582 87.9078 18.7968C88.1554 18.9355 88.4623 19.0642 88.7989 19.1929C89.1355 19.3117 89.5712 19.3711 90.0959 19.3711C90.5117 19.3711 90.8582 19.3216 91.1553 19.2226C91.4523 19.1236 91.6899 18.9949 91.8879 18.8364C92.076 18.678 92.2245 18.4899 92.3137 18.282C92.4028 18.0741 92.4424 17.8563 92.4424 17.6286C92.4424 17.2919 92.3433 17.0147 92.1453 16.7969C91.9473 16.5791 91.68 16.391 91.3434 16.2326C91.0068 16.0742 90.6305 15.9355 90.2048 15.8068C89.7791 15.6781 89.3434 15.5395 88.8979 15.391C88.4524 15.2425 88.0167 15.0643 87.591 14.8663C87.1653 14.6683 86.7891 14.4108 86.4524 14.1039C86.1158 13.797 85.8485 13.4208 85.6505 12.9653C85.4525 12.5099 85.3535 11.9753 85.3535 11.3416C85.3535 10.7476 85.4723 10.1932 85.7 9.65851C85.9277 9.12388 86.2742 8.65855 86.7297 8.26252C87.1851 7.86649 87.7494 7.54967 88.4326 7.31205C89.1157 7.07444 89.8979 6.95563 90.7889 6.95563C91.779 6.95563 92.68 7.12394 93.5017 7.45066C94.3136 7.77738 94.9967 8.21301 95.5413 8.73775L94.7591 9.98524Z" fill="#274796"/>
<path d="M112.284 1.28253C113.64 1.28253 114.818 1.44094 115.808 1.75776C116.798 2.07459 117.62 2.52012 118.264 3.09436C118.907 3.6686 119.392 4.35174 119.699 5.1438C120.016 5.93585 120.174 6.80711 120.174 7.75758C120.174 8.70804 120.006 9.63871 119.679 10.4605C119.353 11.2822 118.858 11.9852 118.204 12.5693C117.551 13.1634 116.729 13.6188 115.739 13.9455C114.749 14.2722 113.6 14.4405 112.274 14.4405H109.452V21.5888H105.67V1.28253H112.274H112.284ZM112.284 11.4901C112.977 11.4901 113.581 11.401 114.095 11.2327C114.61 11.0644 115.036 10.807 115.382 10.4902C115.729 10.1733 115.977 9.77732 116.145 9.31199C116.313 8.84665 116.402 8.33182 116.402 7.75758C116.402 7.18334 116.313 6.72791 116.145 6.28238C115.977 5.84675 115.719 5.47052 115.382 5.1636C115.046 4.85668 114.62 4.61906 114.105 4.45075C113.59 4.28244 112.987 4.20323 112.284 4.20323H109.462V11.4901H112.284Z" fill="#274796"/>
<path d="M121.748 9.19317C123.401 7.67837 125.401 6.91602 127.728 6.91602C128.569 6.91602 129.322 7.05463 129.985 7.33184C130.649 7.60906 131.213 7.99519 131.668 8.48032C132.124 8.97536 132.48 9.5595 132.718 10.2426C132.955 10.9258 133.074 11.6782 133.074 12.4901V21.5888H131.5C131.173 21.5888 130.916 21.5393 130.738 21.4403C130.559 21.3413 130.421 21.1433 130.312 20.8463L130.005 19.8067C129.639 20.1334 129.282 20.4205 128.936 20.6681C128.589 20.9156 128.233 21.1235 127.857 21.2918C127.48 21.4601 127.084 21.5888 126.659 21.6779C126.233 21.767 125.758 21.8165 125.243 21.8165C124.639 21.8165 124.075 21.7373 123.56 21.569C123.045 21.4007 122.599 21.1631 122.223 20.8364C121.847 20.5097 121.56 20.1037 121.352 19.6186C121.144 19.1335 121.045 18.5691 121.045 17.9157C121.045 17.5493 121.104 17.183 121.223 16.8266C121.342 16.4702 121.54 16.1237 121.817 15.7969C122.094 15.4702 122.451 15.1633 122.896 14.8663C123.332 14.5791 123.877 14.3217 124.52 14.1039C125.164 13.8861 125.906 13.7178 126.758 13.5792C127.609 13.4406 128.579 13.3614 129.678 13.3317V12.4901C129.678 11.5297 129.47 10.8169 129.064 10.3516C128.659 9.88622 128.055 9.6585 127.282 9.6585C126.718 9.6585 126.253 9.72781 125.886 9.85652C125.52 9.98523 125.193 10.1337 124.906 10.302C124.629 10.4704 124.372 10.609 124.144 10.7476C123.916 10.8763 123.659 10.9456 123.381 10.9456C123.134 10.9456 122.936 10.8862 122.768 10.7575C122.599 10.6288 122.461 10.4803 122.362 10.3119L121.748 9.20307V9.19317ZM129.698 15.4405C128.698 15.49 127.857 15.5692 127.173 15.6979C126.49 15.8266 125.946 15.985 125.53 16.1831C125.114 16.3811 124.827 16.6088 124.649 16.8662C124.471 17.1236 124.381 17.4107 124.381 17.7276C124.381 18.3315 124.56 18.7671 124.926 19.0345C125.282 19.2919 125.758 19.4305 126.342 19.4305C127.055 19.4305 127.668 19.3018 128.183 19.0444C128.698 18.7869 129.213 18.4008 129.708 17.8761V15.4504L129.698 15.4405Z" fill="#274796"/>
<path d="M139.609 9.67831C140.055 8.81695 140.589 8.1437 141.213 7.64867C141.827 7.15363 142.56 6.91602 143.401 6.91602C144.065 6.91602 144.599 7.06453 145.005 7.35165L144.777 9.94562C144.728 10.1139 144.659 10.2327 144.57 10.302C144.48 10.3714 144.362 10.411 144.213 10.411C144.075 10.411 143.867 10.3912 143.589 10.3417C143.312 10.2921 143.045 10.2723 142.778 10.2723C142.391 10.2723 142.055 10.3318 141.748 10.4407C141.451 10.5496 141.184 10.7179 140.936 10.9258C140.698 11.1337 140.49 11.3911 140.302 11.6881C140.124 11.9852 139.946 12.3317 139.788 12.7178V21.5888H136.322V7.18333H138.362C138.718 7.18333 138.966 7.24274 139.104 7.37145C139.243 7.50016 139.342 7.72787 139.382 8.05459L139.589 9.68821L139.609 9.67831Z" fill="#274796"/>
<path d="M151.61 21.8166C150.352 21.8166 149.392 21.4601 148.729 20.7572C148.055 20.0542 147.729 19.0741 147.729 17.8266V9.77734H146.253C146.065 9.77734 145.907 9.71794 145.778 9.59913C145.649 9.48032 145.58 9.29221 145.58 9.05459V7.6784L147.897 7.30217L148.629 3.3716C148.679 3.18349 148.768 3.03498 148.897 2.93597C149.026 2.83696 149.194 2.77756 149.402 2.77756H151.204V7.31207H156.451V9.78724H151.204V17.5989C151.204 18.0444 151.313 18.4008 151.53 18.6484C151.748 18.8959 152.055 19.0246 152.431 19.0246C152.649 19.0246 152.827 18.9949 152.976 18.9454C153.124 18.8959 153.243 18.8365 153.352 18.787C153.461 18.7276 153.56 18.6781 153.639 18.6286C153.728 18.579 153.808 18.5493 153.897 18.5493C153.996 18.5493 154.085 18.579 154.154 18.6286C154.223 18.6781 154.293 18.7573 154.362 18.8563L155.402 20.5394C154.897 20.9651 154.312 21.2819 153.659 21.4898C153.006 21.7077 152.322 21.8166 151.62 21.8166H151.61Z" fill="#274796"/>
<path d="M160.727 8.94565C160.757 8.88624 160.806 8.80704 160.866 8.71793C160.974 8.56942 161.133 8.37141 161.41 8.13379C161.826 7.79717 162.222 7.59915 162.44 7.50015C162.796 7.33184 163.182 7.19323 163.598 7.09422C164.014 6.99521 164.46 6.94571 164.945 6.94571C165.727 6.94571 166.43 7.07442 167.034 7.34174C167.638 7.60905 168.152 7.98528 168.558 8.46051C168.964 8.94565 169.271 9.51989 169.489 10.1832C169.697 10.8565 169.806 11.5891 169.806 12.3911V21.5591H166.341V12.3911C166.341 11.5099 166.143 10.8268 165.737 10.3515C165.331 9.86641 164.717 9.62879 163.895 9.62879C163.291 9.62879 162.737 9.7674 162.212 10.0347C161.687 10.302 161.192 10.6783 160.727 11.1436V21.5591H157.262V7.31203C157.262 7.31203 158.44 7.31203 159.43 7.31203C160.153 7.31203 160.737 7.89617 160.737 8.61892V8.95555L160.727 8.94565Z" fill="#274796"/>
<path d="M175.766 14.8168C175.825 15.5593 175.954 16.193 176.162 16.7375C176.37 17.2721 176.637 17.7177 176.974 18.0741C177.31 18.4206 177.706 18.6879 178.172 18.8562C178.637 19.0246 179.152 19.1137 179.706 19.1137C180.261 19.1137 180.756 19.0444 181.162 18.9157C181.568 18.7869 181.924 18.6384 182.231 18.48C182.538 18.3216 182.805 18.1731 183.033 18.0444C183.261 17.9157 183.488 17.8464 183.696 17.8464C183.983 17.8464 184.201 17.9553 184.34 18.1731L185.34 19.4404C184.954 19.8859 184.528 20.2621 184.043 20.5691C183.568 20.876 183.063 21.1136 182.548 21.3017C182.033 21.4799 181.498 21.6086 180.964 21.6878C180.429 21.7671 179.904 21.7968 179.399 21.7968C178.399 21.7968 177.469 21.6284 176.607 21.3017C175.746 20.9651 174.994 20.48 174.36 19.8265C173.726 19.1731 173.221 18.3711 172.855 17.4108C172.489 16.4504 172.311 15.3415 172.311 14.0742C172.311 13.0941 172.469 12.1634 172.786 11.302C173.103 10.4407 173.558 9.67832 174.152 9.04467C174.746 8.40113 175.469 7.89619 176.33 7.51997C177.192 7.14374 178.152 6.95563 179.231 6.95563C180.142 6.95563 180.974 7.10414 181.746 7.39126C182.518 7.67838 183.172 8.10411 183.726 8.65854C184.28 9.21298 184.716 9.89613 185.023 10.708C185.34 11.5198 185.498 12.4406 185.498 13.4802C185.498 14.0049 185.439 14.3613 185.33 14.5396C185.221 14.7178 185.003 14.8168 184.686 14.8168H175.766ZM182.38 12.7277C182.38 12.2822 182.32 11.8565 182.191 11.4604C182.063 11.0644 181.875 10.7179 181.627 10.411C181.38 10.104 181.053 9.87633 180.667 9.69812C180.281 9.5298 179.825 9.4407 179.31 9.4407C178.31 9.4407 177.518 9.72782 176.944 10.3021C176.37 10.8763 176.004 11.6783 175.845 12.7277H182.389H182.38Z" fill="#274796"/>
<path d="M191.361 9.67831C191.807 8.81695 192.341 8.1437 192.965 7.64867C193.579 7.15363 194.312 6.91602 195.153 6.91602C195.817 6.91602 196.351 7.06453 196.757 7.35165L196.529 9.94562C196.48 10.1139 196.411 10.2327 196.321 10.302C196.232 10.3714 196.114 10.411 195.965 10.411C195.826 10.411 195.619 10.3912 195.341 10.3417C195.064 10.2921 194.797 10.2723 194.529 10.2723C194.143 10.2723 193.807 10.3318 193.5 10.4407C193.193 10.5496 192.935 10.7179 192.688 10.9258C192.45 11.1337 192.242 11.3911 192.054 11.6881C191.876 11.9852 191.698 12.3317 191.539 12.7178V21.5888H188.074V7.18333H190.114C190.47 7.18333 190.718 7.24274 190.856 7.37145C190.995 7.50016 191.094 7.72787 191.134 8.05459L191.341 9.68821L191.361 9.67831Z" fill="#274796"/>
<path d="M207.31 9.98524C207.221 10.1337 207.122 10.2427 207.013 10.3021C206.914 10.3615 206.775 10.3912 206.617 10.3912C206.449 10.3912 206.27 10.3417 206.072 10.2526C205.884 10.1634 205.656 10.0545 205.409 9.93573C205.161 9.81692 204.864 9.71792 204.548 9.61891C204.221 9.52981 203.845 9.4803 203.399 9.4803C202.716 9.4803 202.181 9.62881 201.795 9.91593C201.409 10.2031 201.211 10.5892 201.211 11.0545C201.211 11.3614 201.31 11.6188 201.508 11.8367C201.706 12.0545 201.973 12.2327 202.31 12.3911C202.647 12.5495 203.023 12.6881 203.439 12.8168C203.864 12.9455 204.29 13.0841 204.726 13.2327C205.161 13.3812 205.587 13.5495 206.013 13.7475C206.439 13.9356 206.815 14.1831 207.142 14.4801C207.468 14.7772 207.746 15.1237 207.944 15.5395C208.142 15.9553 208.241 16.4504 208.241 17.0246C208.241 17.7177 208.112 18.3513 207.864 18.9454C207.617 19.5295 207.25 20.0344 206.765 20.4602C206.28 20.8859 205.676 21.2225 204.963 21.4601C204.251 21.6977 203.419 21.8166 202.488 21.8166C201.993 21.8166 201.508 21.7671 201.033 21.6779C200.558 21.5888 200.102 21.47 199.667 21.3017C199.231 21.1433 198.825 20.9552 198.459 20.7374C198.092 20.5196 197.766 20.2918 197.479 20.0344L198.28 18.7176C198.379 18.5592 198.508 18.4404 198.647 18.3513C198.785 18.2721 198.964 18.2226 199.181 18.2226C199.399 18.2226 199.597 18.282 199.795 18.4008C199.983 18.5196 200.211 18.6582 200.459 18.7968C200.706 18.9355 201.013 19.0642 201.35 19.1929C201.686 19.3117 202.122 19.3711 202.647 19.3711C203.063 19.3711 203.409 19.3216 203.706 19.2226C204.003 19.1236 204.241 18.9949 204.439 18.8364C204.627 18.678 204.775 18.4899 204.864 18.282C204.954 18.0741 204.993 17.8563 204.993 17.6286C204.993 17.2919 204.894 17.0147 204.696 16.7969C204.498 16.5791 204.231 16.391 203.894 16.2326C203.558 16.0742 203.181 15.9355 202.756 15.8068C202.33 15.6781 201.894 15.5395 201.449 15.391C201.003 15.2425 200.568 15.0643 200.142 14.8663C199.716 14.6683 199.34 14.4108 199.003 14.1039C198.667 13.797 198.399 13.4208 198.201 12.9653C198.003 12.5099 197.904 11.9753 197.904 11.3416C197.904 10.7476 198.023 10.1932 198.251 9.65851C198.488 9.12388 198.825 8.65855 199.28 8.26252C199.736 7.86649 200.3 7.54967 200.983 7.31205C201.667 7.07444 202.449 6.95563 203.34 6.95563C204.33 6.95563 205.231 7.12394 206.053 7.45066C206.864 7.77738 207.548 8.21301 208.092 8.73775L207.31 9.98524Z" fill="#274796"/>
<path d="M68.9186 7.31207H65.4336V21.5889H68.9186V7.31207Z" fill="#274796"/>
<path d="M209.182 6.95564V4.19335H208.152V3.82703H210.637V4.19335H209.598V6.95564H209.182Z" fill="#274796"/>
<path d="M211.043 6.95564V3.82703H211.667L212.409 6.04478C212.479 6.25269 212.528 6.4012 212.558 6.51011C212.597 6.3913 212.647 6.23289 212.726 6.00518L213.479 3.82703H214.033V6.95564H213.637V4.33196L212.726 6.95564H212.35L211.449 4.29236V6.95564H211.053H211.043Z" fill="#274796"/>
</svg>